<mxfile host="app.diagrams.net" modified="2021-03-31T13:42:51.979Z" agent="5.0 (Windows NT 10.0; WOW64) AppleWebKit/537.36 (KHTML, like Gecko) Chrome/78.0.3904.108 Safari/537.36" etag="KnwpqO_jj8j1ocSggWD7" version="14.5.3" type="github">
  <diagram name="Page-1" id="c7558073-3199-34d8-9f00-42111426c3f3">
    <mxGraphModel dx="1974" dy="520" grid="1" gridSize="10" guides="1" tooltips="1" connect="1" arrows="1" fold="1" page="1" pageScale="1" pageWidth="826" pageHeight="1169" background="#ffffff" math="0" shadow="0">
      <root>
        <mxCell id="0" />
        <mxCell id="1" parent="0" />
        <mxCell id="dF-b-PyfVtP-A9ZUPwfD-1" value="client_A" style="rounded=0;whiteSpace=wrap;html=1;fillColor=#85CEFF;" vertex="1" parent="1">
          <mxGeometry x="10" y="120" width="60" height="40" as="geometry" />
        </mxCell>
        <mxCell id="dF-b-PyfVtP-A9ZUPwfD-20" value="" style="edgeStyle=orthogonalEdgeStyle;rounded=0;orthogonalLoop=1;jettySize=auto;html=1;" edge="1" parent="1" source="dF-b-PyfVtP-A9ZUPwfD-2" target="dF-b-PyfVtP-A9ZUPwfD-16">
          <mxGeometry relative="1" as="geometry">
            <Array as="points">
              <mxPoint x="280" y="180" />
              <mxPoint x="280" y="180" />
            </Array>
          </mxGeometry>
        </mxCell>
        <mxCell id="dF-b-PyfVtP-A9ZUPwfD-2" value="nginx&lt;br&gt;ip:port" style="rounded=0;whiteSpace=wrap;html=1;" vertex="1" parent="1">
          <mxGeometry x="160" y="160" width="60" height="40" as="geometry" />
        </mxCell>
        <mxCell id="dF-b-PyfVtP-A9ZUPwfD-5" value="" style="endArrow=classic;html=1;exitX=1;exitY=0.5;exitDx=0;exitDy=0;entryX=0.006;entryY=0.608;entryDx=0;entryDy=0;entryPerimeter=0;" edge="1" parent="1" target="dF-b-PyfVtP-A9ZUPwfD-2">
          <mxGeometry width="50" height="50" relative="1" as="geometry">
            <mxPoint x="70" y="200" as="sourcePoint" />
            <mxPoint x="160" y="180" as="targetPoint" />
            <Array as="points">
              <mxPoint x="120" y="180" />
            </Array>
          </mxGeometry>
        </mxCell>
        <mxCell id="dF-b-PyfVtP-A9ZUPwfD-7" value="client_B" style="rounded=0;whiteSpace=wrap;html=1;fillColor=#57D8FF;" vertex="1" parent="1">
          <mxGeometry x="10" y="180" width="60" height="40" as="geometry" />
        </mxCell>
        <mxCell id="dF-b-PyfVtP-A9ZUPwfD-10" value="" style="endArrow=classic;html=1;exitX=1;exitY=0.5;exitDx=0;exitDy=0;entryX=0;entryY=0.75;entryDx=0;entryDy=0;strokeColor=#FF713D;" edge="1" parent="1" target="dF-b-PyfVtP-A9ZUPwfD-2">
          <mxGeometry width="50" height="50" relative="1" as="geometry">
            <mxPoint x="70" y="260" as="sourcePoint" />
            <mxPoint x="140" y="230" as="targetPoint" />
          </mxGeometry>
        </mxCell>
        <mxCell id="dF-b-PyfVtP-A9ZUPwfD-12" value="client_C" style="rounded=0;whiteSpace=wrap;html=1;fillColor=#FF9E66;" vertex="1" parent="1">
          <mxGeometry x="10" y="240" width="60" height="40" as="geometry" />
        </mxCell>
        <mxCell id="dF-b-PyfVtP-A9ZUPwfD-14" value="" style="endArrow=classic;html=1;entryX=0;entryY=0.5;entryDx=0;entryDy=0;exitX=1.014;exitY=0.418;exitDx=0;exitDy=0;exitPerimeter=0;" edge="1" parent="1" source="dF-b-PyfVtP-A9ZUPwfD-1" target="dF-b-PyfVtP-A9ZUPwfD-2">
          <mxGeometry width="50" height="50" relative="1" as="geometry">
            <mxPoint x="80" y="210" as="sourcePoint" />
            <mxPoint x="170" y="180" as="targetPoint" />
            <Array as="points">
              <mxPoint x="130" y="137" />
            </Array>
          </mxGeometry>
        </mxCell>
        <mxCell id="dF-b-PyfVtP-A9ZUPwfD-16" value="" style="rounded=1;arcSize=10;dashed=1;strokeColor=#000000;fillColor=none;gradientColor=none;dashPattern=8 3 1 3;strokeWidth=2;" vertex="1" parent="1">
          <mxGeometry x="300" y="100" width="280" height="190" as="geometry" />
        </mxCell>
        <mxCell id="dF-b-PyfVtP-A9ZUPwfD-17" value="服务1&lt;br&gt;ip1:port1" style="ellipse;shape=cloud;whiteSpace=wrap;html=1;" vertex="1" parent="1">
          <mxGeometry x="370" y="120" width="90" height="40" as="geometry" />
        </mxCell>
        <mxCell id="dF-b-PyfVtP-A9ZUPwfD-18" value="&lt;span&gt;服务2&lt;br&gt;&lt;/span&gt;ip2:port2&lt;span&gt;&lt;br&gt;&lt;/span&gt;" style="ellipse;shape=cloud;whiteSpace=wrap;html=1;" vertex="1" parent="1">
          <mxGeometry x="370" y="175" width="90" height="40" as="geometry" />
        </mxCell>
        <mxCell id="dF-b-PyfVtP-A9ZUPwfD-19" value="&lt;span&gt;服务3&lt;br&gt;&lt;/span&gt;ip3:port3&lt;span&gt;&lt;br&gt;&lt;/span&gt;" style="ellipse;shape=cloud;whiteSpace=wrap;html=1;" vertex="1" parent="1">
          <mxGeometry x="370" y="240" width="90" height="40" as="geometry" />
        </mxCell>
        <mxCell id="dF-b-PyfVtP-A9ZUPwfD-22" value="服务器对外不暴露具体地址、端口" style="text;html=1;strokeColor=none;fillColor=none;align=center;verticalAlign=middle;whiteSpace=wrap;rounded=0;" vertex="1" parent="1">
          <mxGeometry x="230" y="70" width="200" as="geometry" />
        </mxCell>
        <mxCell id="dF-b-PyfVtP-A9ZUPwfD-25" value="" style="endArrow=classic;html=1;exitX=0.99;exitY=0.644;exitDx=0;exitDy=0;entryX=0.115;entryY=0.501;entryDx=0;entryDy=0;entryPerimeter=0;exitPerimeter=0;fillColor=#FF866E;strokeColor=#FF7E75;" edge="1" parent="1" source="dF-b-PyfVtP-A9ZUPwfD-2" target="dF-b-PyfVtP-A9ZUPwfD-19">
          <mxGeometry width="50" height="50" relative="1" as="geometry">
            <mxPoint x="70" y="310" as="sourcePoint" />
            <mxPoint x="140.71067811865476" y="260" as="targetPoint" />
          </mxGeometry>
        </mxCell>
        <mxCell id="dF-b-PyfVtP-A9ZUPwfD-28" value="2" style="text;html=1;align=center;verticalAlign=middle;resizable=0;points=[];autosize=1;" vertex="1" parent="1">
          <mxGeometry x="100" y="160" width="20" height="20" as="geometry" />
        </mxCell>
        <mxCell id="dF-b-PyfVtP-A9ZUPwfD-29" value="3" style="text;html=1;align=center;verticalAlign=middle;resizable=0;points=[];autosize=1;" vertex="1" parent="1">
          <mxGeometry x="100" y="210" width="20" height="20" as="geometry" />
        </mxCell>
        <mxCell id="dF-b-PyfVtP-A9ZUPwfD-33" value="" style="endArrow=classic;html=1;exitX=0;exitY=0.424;exitDx=0;exitDy=0;exitPerimeter=0;entryX=0.11;entryY=0.513;entryDx=0;entryDy=0;entryPerimeter=0;" edge="1" parent="1" source="dF-b-PyfVtP-A9ZUPwfD-16" target="dF-b-PyfVtP-A9ZUPwfD-17">
          <mxGeometry width="50" height="50" relative="1" as="geometry">
            <mxPoint x="310" y="180" as="sourcePoint" />
            <mxPoint x="360" y="130" as="targetPoint" />
          </mxGeometry>
        </mxCell>
        <mxCell id="dF-b-PyfVtP-A9ZUPwfD-34" value="" style="endArrow=none;dashed=1;html=1;dashPattern=1 3;strokeWidth=2;fillColor=#FF866E;exitX=1;exitY=0.25;exitDx=0;exitDy=0;" edge="1" parent="1" source="dF-b-PyfVtP-A9ZUPwfD-2">
          <mxGeometry width="50" height="50" relative="1" as="geometry">
            <mxPoint x="320" y="170" as="sourcePoint" />
            <mxPoint x="378" y="140" as="targetPoint" />
          </mxGeometry>
        </mxCell>
        <mxCell id="dF-b-PyfVtP-A9ZUPwfD-39" value="3" style="ellipse;whiteSpace=wrap;html=1;aspect=fixed;fillColor=#FF9E66;" vertex="1" parent="1">
          <mxGeometry x="100" y="210" width="20" height="20" as="geometry" />
        </mxCell>
        <mxCell id="dF-b-PyfVtP-A9ZUPwfD-40" value="3" style="ellipse;whiteSpace=wrap;html=1;aspect=fixed;fillColor=#FF9E66;" vertex="1" parent="1">
          <mxGeometry x="310" y="240" width="20" height="20" as="geometry" />
        </mxCell>
        <mxCell id="dF-b-PyfVtP-A9ZUPwfD-43" value="1" style="ellipse;whiteSpace=wrap;html=1;aspect=fixed;fillColor=#52F3FF;" vertex="1" parent="1">
          <mxGeometry x="100" y="110" width="20" height="20" as="geometry" />
        </mxCell>
        <mxCell id="dF-b-PyfVtP-A9ZUPwfD-45" value="2" style="ellipse;whiteSpace=wrap;html=1;aspect=fixed;fillColor=#52F3FF;" vertex="1" parent="1">
          <mxGeometry x="100" y="160" width="20" height="20" as="geometry" />
        </mxCell>
        <mxCell id="dF-b-PyfVtP-A9ZUPwfD-46" value="1" style="ellipse;whiteSpace=wrap;html=1;aspect=fixed;fillColor=#52F3FF;" vertex="1" parent="1">
          <mxGeometry x="310" y="150" width="20" height="20" as="geometry" />
        </mxCell>
        <mxCell id="dF-b-PyfVtP-A9ZUPwfD-47" value="" style="endArrow=classic;html=1;exitX=-0.002;exitY=0.426;exitDx=0;exitDy=0;exitPerimeter=0;entryX=0.11;entryY=0.626;entryDx=0;entryDy=0;entryPerimeter=0;" edge="1" parent="1" source="dF-b-PyfVtP-A9ZUPwfD-16" target="dF-b-PyfVtP-A9ZUPwfD-18">
          <mxGeometry width="50" height="50" relative="1" as="geometry">
            <mxPoint x="310" y="190.55999999999995" as="sourcePoint" />
            <mxPoint x="389.9000000000001" y="150.5200000000001" as="targetPoint" />
          </mxGeometry>
        </mxCell>
        <mxCell id="dF-b-PyfVtP-A9ZUPwfD-48" value="2" style="ellipse;whiteSpace=wrap;html=1;aspect=fixed;fillColor=#52F3FF;" vertex="1" parent="1">
          <mxGeometry x="330" y="190" width="20" height="20" as="geometry" />
        </mxCell>
        <mxCell id="dF-b-PyfVtP-A9ZUPwfD-49" value="" style="endArrow=none;html=1;strokeColor=#FF7E75;fillColor=#FF866E;" edge="1" parent="1">
          <mxGeometry width="50" height="50" relative="1" as="geometry">
            <mxPoint x="260" y="340" as="sourcePoint" />
            <mxPoint x="260" as="targetPoint" />
          </mxGeometry>
        </mxCell>
        <mxCell id="dF-b-PyfVtP-A9ZUPwfD-51" value="" style="rounded=0;whiteSpace=wrap;html=1;fillColor=#52F3FF;" vertex="1" parent="1">
          <mxGeometry width="260" height="30" as="geometry" />
        </mxCell>
        <mxCell id="dF-b-PyfVtP-A9ZUPwfD-30" value="Nginx反向代理、负载均衡" style="text;html=1;strokeColor=none;fillColor=none;align=center;verticalAlign=middle;whiteSpace=wrap;rounded=0;" vertex="1" parent="1">
          <mxGeometry x="10" y="10" width="200" as="geometry" />
        </mxCell>
        <mxCell id="dF-b-PyfVtP-A9ZUPwfD-55" value="" style="html=1;shadow=0;dashed=0;align=center;verticalAlign=middle;shape=mxgraph.arrows2.jumpInArrow;dy=15;dx=38;arrowHead=55;fillColor=#52F3FF;rotation=-190;" vertex="1" parent="1">
          <mxGeometry x="100" y="210" width="110" height="170" as="geometry" />
        </mxCell>
        <mxCell id="dF-b-PyfVtP-A9ZUPwfD-62" value="Nginx" style="swimlane;html=1;childLayout=stackLayout;resizeParent=1;resizeParentMax=0;startSize=20;fillColor=#52F3FF;" vertex="1" parent="1">
          <mxGeometry y="380" width="360" height="160" as="geometry" />
        </mxCell>
        <mxCell id="dF-b-PyfVtP-A9ZUPwfD-63" value="&lt;span style=&quot;background-color: rgb(255 , 255 , 255)&quot;&gt;正向代理&lt;/span&gt;" style="swimlane;html=1;startSize=20;" vertex="1" parent="dF-b-PyfVtP-A9ZUPwfD-62">
          <mxGeometry y="20" width="120" height="140" as="geometry">
            <mxRectangle y="20" width="30" height="460" as="alternateBounds" />
          </mxGeometry>
        </mxCell>
        <mxCell id="dF-b-PyfVtP-A9ZUPwfD-80" value="&lt;span&gt;如上图1和2，在不知道&lt;/span&gt;&lt;br&gt;&lt;span&gt;服务器的具体地址的时候，&lt;/span&gt;&lt;br&gt;&lt;span&gt;先访问一个中间代理，然后&lt;/span&gt;&lt;br&gt;&lt;span&gt;根据代理配置，访问到具体的服务器。&lt;/span&gt;" style="rounded=0;whiteSpace=wrap;html=1;fillColor=#52F3FF;" vertex="1" parent="dF-b-PyfVtP-A9ZUPwfD-63">
          <mxGeometry x="-776" y="145" width="60" height="40" as="geometry" />
        </mxCell>
        <mxCell id="dF-b-PyfVtP-A9ZUPwfD-81" value="如上图3，客户端知道服务端的ip和port，通过nginx可以隐藏客户端地址。" style="whiteSpace=wrap;html=1;aspect=fixed;fillColor=#52F3FF;" vertex="1" parent="dF-b-PyfVtP-A9ZUPwfD-63">
          <mxGeometry x="5" y="30" width="110" height="110" as="geometry" />
        </mxCell>
        <mxCell id="dF-b-PyfVtP-A9ZUPwfD-64" value="&lt;span style=&quot;background-color: rgb(255 , 255 , 255)&quot;&gt;反向代理&lt;/span&gt;" style="swimlane;html=1;startSize=20;" vertex="1" parent="dF-b-PyfVtP-A9ZUPwfD-62">
          <mxGeometry x="120" y="20" width="120" height="140" as="geometry">
            <mxRectangle x="120" y="20" width="30" height="460" as="alternateBounds" />
          </mxGeometry>
        </mxCell>
        <mxCell id="dF-b-PyfVtP-A9ZUPwfD-82" value="如上图1,2的请求，客户端不知道&lt;br&gt;服务器地址，只能访问nginx的ip，port&lt;br&gt;，再由nginx进项访问服务&lt;br&gt;nginx可以隐藏服务器地址" style="whiteSpace=wrap;html=1;aspect=fixed;fillColor=#52F3FF;" vertex="1" parent="dF-b-PyfVtP-A9ZUPwfD-64">
          <mxGeometry x="5" y="30" width="110" height="110" as="geometry" />
        </mxCell>
        <mxCell id="dF-b-PyfVtP-A9ZUPwfD-65" value="&lt;span style=&quot;background-color: rgb(255 , 255 , 255)&quot;&gt;静态服务器&lt;/span&gt;" style="swimlane;html=1;startSize=20;" vertex="1" parent="dF-b-PyfVtP-A9ZUPwfD-62">
          <mxGeometry x="240" y="20" width="120" height="140" as="geometry">
            <mxRectangle x="240" y="20" width="30" height="460" as="alternateBounds" />
          </mxGeometry>
        </mxCell>
        <mxCell id="dF-b-PyfVtP-A9ZUPwfD-126" value="服务器上的静态资源，如jpg等，可以拦截请求，直接访问另一个非业务磁盘的地址，减轻业务服务器的压力" style="whiteSpace=wrap;html=1;aspect=fixed;fillColor=#52F3FF;" vertex="1" parent="dF-b-PyfVtP-A9ZUPwfD-65">
          <mxGeometry x="5" y="30" width="110" height="110" as="geometry" />
        </mxCell>
        <mxCell id="dF-b-PyfVtP-A9ZUPwfD-66" value="&lt;span style=&quot;background-color: rgb(255 , 255 , 255)&quot;&gt;负载均衡&lt;/span&gt;" style="swimlane;html=1;startSize=20;" vertex="1" parent="1">
          <mxGeometry x="360" y="400" width="120" height="140" as="geometry">
            <mxRectangle x="360" y="400" width="80" height="20" as="alternateBounds" />
          </mxGeometry>
        </mxCell>
        <mxCell id="dF-b-PyfVtP-A9ZUPwfD-127" value="如上图1,2的请求，nginx访问服务器时采用策略轮询访问，避免请求分配不均匀导致请求无响应" style="whiteSpace=wrap;html=1;aspect=fixed;fillColor=#52F3FF;" vertex="1" parent="dF-b-PyfVtP-A9ZUPwfD-66">
          <mxGeometry y="30" width="110" height="110" as="geometry" />
        </mxCell>
        <mxCell id="dF-b-PyfVtP-A9ZUPwfD-97" value="客户端通过代理访问目标服务器，对服务器来说，客户端是隐藏的，服务器只能感知到代理地址发出了请求" style="whiteSpace=wrap;html=1;aspect=fixed;fillColor=#52F3FF;" vertex="1" parent="1">
          <mxGeometry x="130" y="40" width="100" height="100" as="geometry" />
        </mxCell>
        <mxCell id="dF-b-PyfVtP-A9ZUPwfD-98" value="" style="shape=image;verticalLabelPosition=bottom;labelBackgroundColor=#ffffff;verticalAlign=top;aspect=fixed;imageAspect=0;image=data:image/png,iVBORw0KGgoAAAANSUhEUgAAAoUAAAI8CAYAAACH7NFpAAAgAElEQVR4AeydB3gU1frG3930hARCCb1LEUNRug3pSLUXiChY7xUU0GtDQbEhVwUF77XjHwJeOwgoRbAXRJReBUF6KIEUUnf3/7xn92xmN7vJJuyG3fCd50lm5sxp8zs7O+9+3zlnTPsPHbVBghAQAkJACAgBISAEhMA5TcB8Tl+9XLwQEAJCQAgIASEgBISAIiCiUD4IQkAICAEhIASEgBAQAhBRKB8CISAEhIAQEAJCQAgIARGF8hkQAkJACAgBISAEhIAQgIhC+RAIASEgBISAEBACQkAIiCj0y2fgxPHjfilHCgkcAemjwLH1Z8nST/6kGZiypI8Cw9WfpUof+ZNm4MoKxn4KD8TlrrUdxHfWvfjVth/ZtnxEIAy9zc1wc1hbJCImEFWWWOaxLODbXWb8tMeE/enAkQyLSl87IQwNEoGLm9jQo7kVNauUWIzXk1ab1es5OREcBKSPgqMfSmuF9FNphM7+eemjs98HpbVA+qg0QsFxPhj7ya+icJ3tMF4vXION1sNIMsehj6k5zg+rhSiEY6/tJF4s/BFPhvdCRAV5rSkG31kdhq+3W9HnggjcdkkUWtYOQ51qYeoTcfikBTuOWLBscx7empOPnq3MuL2rpdziMDg+ZtIKISAEhIAQEAJCQAiUnUC5ReFuWzq+sezGL7b9OGLLxAlbDgodFrOm5kS8FjHExSp4CRohHTn40rIDQ8Nal72lZczxw24TnlkKjOgWiZ8mxiE+qngBzWqFgX8DkiORmQe8tjIbKXNy8fgA4NJmvq/pbTbJJO7idIMrRvoouPrDW2ukn7yRCZ546aPg6QtvLZE+8kYmuOKDsZ/KLAoP2TLx38LV+MqyG4ANNq2dTOoQ54XVxFVhrXFn3gK0CUvC2LDuqGWKVT1B13EXc4OA98on682YuwaYf3dVtK1vtwqWVilF4yMD4zCofTRGzz6FI5kmXNveN7dwMJqAS7vec+289FFo9Lj0U/D3k/SR9FHwEwiNFgbjvVQmUfib9QAmFqzAKWsuHBpQbYmfRsIbItriInM9TMlfhRwUYL/lFH4y78Xzkf3Q2SEGExEd0N6ihZCCcNH9iagTz1aWLVBEMu+QV9JRO95UJoth2WoqSm212WA2eW6rxWZFmFgii2BV4F6d+/q51GbjLyCTCSazGerXkMWijhEWpo5tVqv9vCPX4VeXu+SXg8AQiPuoI0y5nOzldg8pz4XhV2ux+8gGW2wdZF/7S2AaJqW6EOD9Y3J8z23YsAFLvlyK9evX4+jRNJUuKak22rdrh4FXDkC7du1UnDGPS2FyEFAC8kwKKN4zLtx4X/j7XvJZFK6x7Mf4/C9QYLNP0uAXsA021DVXxXnm6ugV1gzNTNVxX/5inLYVqHMmmJBpzcOD+V9iWsQAdA1riCiTz1WWGRzHENJlTAtheQShrpB53x1VFcPfOInUkSh1jGF5TcC6YykIjxVk4rfMPTiYn65EYJPomugY1wRVwgMrovU1V/ZteftIc9F9RVFoy84EKDCiaQG3AVkZQHgETFHRgEMY6nwhsz2xHRvzG6NtnbP7eStPP5lyjgLWQlfU5nCYq9QDwh3jRgrzYM06AFj195c9ucrrmlOOSiFQnj5ikRSEubk5eO2/r2PZsuXIz89XNWmheOjQIfBv1ddfo3//frj3H/cgOrriJyaWcvkhcbq8faS/5+SZVDHdXN5+CuS95NNguIO2DGUhLDB8odY1VcFLUQPxWfRw/DtyAK4Ma4lW5ppYEj0Sk6J6oqopGvyA8ZmZaynEY3nLccx2OqCkOalkRLdon13GujEnc4D/+92Gez4semDQYsiyWGaggupYSwFmHFyGoVtewYQ9/8NL6asw7fhy/GPXHFy9fRbmpf1U/uq3pmLYs6uQXv4SSs55dBWev/tVfFfJV+TRX5Q2mxW23NMwde0F88MzYH71M4S99BFMY56GqUlL2HJyYKNYdI6pKBmfr2e3pT5Sej+yr0elYhsL3ZqKKSvt1hcgDSueTcUOR2UZv/wfluxxHBz8CW+/vwj/+3wllvx+Aif+2orfNmzHtj/3Yt+hNKSfyoLFtxEUvl5KxaSzWhDe4BLEDV+OKiNWqr+4m5cDSZfBZvgOK7ExR1dhiqd7x4WtsQRyfgSztxriWEbqJnsE90cZzhvPGbI4d0/+jv99sB7ZzogSdtwFcQlJz9Yp3kM5OTmY9ORTWPLFlygoKPDaFJ5jGqZlHvUc8ZraywnF+2WsOMrzHvrGS7bi0fa8w4x9VzwRkLUT337+M/7O8XQydOIC/kwyonDpI+MJ7m/C7FG6/9zPlXRs76856ouwpHRF53KO7sXRbLcflUWng24v0PeST2a7mXm/4KQlRwk8Ero4rDGeje6HOEQUAxYOMwaGtUKn6Aa4K/czHLJmqDS0GL6c/z2ei+pfLI8/Imgl5CxjTirxNew8BizaCfxwAEhLs2L0ha7up3t7x+HiZ3Nxe9fSrYW+1qnTsWOzrHkYuysVawr3wWYrhCnSDGTlqSSmmAgcyE/Hc8eWYdvpQ5jS5Br15VjeXxa6XtmWnQC/KCkIaQU03TMJ5itvVuMlrDs2Aok1EDbgRtiuGALrk3fCtvV3uwWxBGGYvvJl3HaoHxamJCsBN2yaQzggCWOmTUDfWoY2bk3Fwyt5vBy3jXJ3RyfjhdkpUNO2zk/Bwtn2L9J90yZg7MGXMXvrBIw631DW8R8xf31rjOhmiGvRCTd1qmuIKNotzMkqOgipPRtM8fVhrtbU6VI2xdpQGNYQhVlmRCf4/2K2paYCd03FqFrsg3XorvtlZSqGsf/O64f3Zk9FonvVfDA+tBxrAURGRuDiW+7H+EtruqcK+WPeQ6+/8SbW/v4Hks8/H3379sEXS5fir7/2IKlWEsLCw3D48GE0atQIgwcOxPff/4Dff1+HN958C+Puv++sXX/6ylTMapyChROTz1obKqric+KZdGQN/rc6A/GxsagSF424uFhUiY1GXOEJpBfa9yMifJJFFdUtxeoJ9L1U6tX/aT2OlYV/OhvW0FQNz0T19SgInYkAJJni8GLUlRiV8wlyrQXKdbAi/0/cFdkFTUzFvhqNWcu1z3UIueyMp1nG7gX++DeweBewyWFMOX7MgvxsG65q72oVZFl9LojEt7sKfJ504l6Xt2N27HN7F2ONdT9sp/ORFBmPG6t3Q7u4hspF/0vGn/jw2K/IP12AT00b0OhQDdxZ9wpwYGrQCMNavfDoG728XWLliLfZYDOblRXQPPoRhF15M6yrV8L6xjPAyWOwmcNg6zkUppEPANVqAhxnWFI4ugozf+mA99RDZhNmf1oP781OsYsFWvseSkVDLSh4/GkaOiIZN+g4VTZ/Db+Mn7v1swtCZ33JGDXb8fDqnYIGz6Zi20Q9LvIovpt3GP3vuxbxzvQAdv6G/x2MLf4lGReDKrGxSPAwa9+YPXj39VjCohZSp+dmhMMUBkTFee8nWmbtQhy4bdRBjElJw6xUbXlleZswLNVRbu8UvACHcF/5CGY5ohekbsJC/v7tnWIX/4ynAFyWhBt0egDDVlLYT8UkAOnfvIrlR77B2In7EKf4R+PNhRG4e1gb2KfqOQoPwc2mTZuw5Msv1Njp81qchyFDhqBv377Izc1FXFwVjspAVlYWoqKjERMdjX379uGP9eux+Isl6NunNy644IKyXXWtXpg0+8y/m44cSkPHukml112lBXoMbVF6uiBOUeHPJJc+sn+n7b9mqusP2QDwqtu2G3o09d14FIAmnFGRgb6XShWFKwt3Ocz3/JI14Y6ITqhiivTpos4z18Cg8Fb4tGCTsrTwQ7eqcBdGR3TyKX9ZEnFhaq5D6C2cLgCW7QYW7wTSDD4ZCsKsU1Zc1d6M6h6+eftfEIX3fizEte29lVy++F+zdmNR+u8whYWhQVR1vNliFBpHF1kIrqjWGj0Tz8e4v+YjMy8Pbx/6BkOqX4g6UVXLV6HkKhcB5Q6my7hVe5iH3QrrX9theelfMOXmwBQdq9yRtmUfwvb7D0DmSSAmrsRxhduWLUfDa7TFKBmjJhqadX4HXIXl2HcUaI1VmELBOJGCkdanR/DzQ1MxqqbdstTwoamYZLACUsh8WHcCJvXWD7Ak9J2Yolxn+1QVtXD5fdcaKnPsVkZLockE68ndsGUfgaXAYp9+Yg5D4bG/1HdYbob9x583Ydg6ZSoW9l+FKW8CYyf2UoK9b28HL7qPD/YzcGb8VCwkamPYmorZG+oZY4BjB4G6yWjdeyoWdkzFsLUdVL7Zz65C7Ym9kHYIqNvvOsxkN9F9vCwMQyqBICSEhZ8vQmGhRXmbrLDBYrEgOjpa/WlI1apVU7s8Zw4PR2Ehx6YDixYtKbso1IXK1mcC58QzqXZn9EA2/l7zM/4qNFgKHT+CaTUMdkthoO+lUkXhz4V/2wfT24DG4dWQjtP4IH+Dulk50cRm4n+As5X47avHf6hzNqDQZoHN6jhntWFR/jaMiugITkLxZ+CbSrgwtXs4nGnDZztMWPEXUOBmHDh6pBCns+wWhVu6Fs/Lslgmy/Z3+OLYeiAyDCaLDQ81HKQEYb6lAOFme5dw1nHX+Oa4teYlmHl0FbLCC/FtxlbcWKsbLDYLwmjuKBYoHlKxwBh/nn4w6V9iKcC0VCygO4sPPIP7itmuovA4H3AVGfZy4TjHMWvDKFjuAl5//Aiuf+NmnKfq/AtfvfIdNtEkHxeNKnGN0X9ou+IuM2P7gnyfP2SsBQUIu2ygmnVsXTRXTSwxVa0Om6XQPhM5pgqQfgxqFrKXWeT2y0zDvr1JaOBtBMXWdViAJLyg3Me9MMkpGJMx6qFkDJv2iOpb3UdGdBQyY1e+jGGp/bCwf5rTJanTRN0zye4miYnBgDvHY1ATx5nKainMO4X8AxtxYuHTakZ4tYGPw3o6Xe07LYYmINIHV7LRcminpi2FDve92z2k0igLIdT9qNzHDtxXPWRXj9vWbgJWbsIwpGDhNQcxZeUmXPJ3LURsfQOf1b0bV9dwZPC4ycSRnceRHxeLuFhadKMR6dvvdI+lVUTk5i1blDUwIjIS1wy7GmFhYbByOAZn8zvuGf3s4Llrhg3Dos8/x+mcHKzfuMFDE92+zxwpnPeG6pODbhZ2RyLdX04rruv3ZscU+4+ron7nfaWHamzBB+M/ww+xscqa22HQTbipfTX7mMJVOWjn/L5z7aP4+CqICPPvM88DlDOKCvwzKQljUpIw6xf+2NXPHvZRB/ysn1v8jlPPJseP2w2pGKbH5er+cu9b92NFwbWf+txyD/o0NOKJQcsLO6Cu+7w6x1rLxpTBth/oe6lUUXjEkqFEXbPwGoixReDlnB8UI97AvJn1jaz3jTe4jmMGk33OCfYVpiPTlo8Ek3erXnk6ga+u028qYX5aBqd+D/xx1PONaBSEnRqZ0aLISOdSPcvUr8VzOXGGB7tzj8BqMqEWYnBxQjM1WzsyrGiMpslkVq7i3olt8PqRb1EYa8aunCMl1Fok3BY6LEjqS22va5YF09Ypd9UoFZ2GFcuAsXqsE8XetFQ1Hqp23SSsPUSXWRKwdR32nZcEHEwDzk8CH2gdu/VTFqyi0nfii+dXIXPgjRjHL0mGoxuw5KvtuLRPK4SqfZMTE0y0/rVoqz7rtm1/qFnGShDy5xLvA1iBcPutpO+LIi7GvTTs/zMJ3Y1jBvVpfrFN26REOccIFj2QHAn4hTjbISg48WSazljkokzsPQELGX10lX0Mm8PKZUgJTjT53hhRmSyFahynFTCHI6L9HcjeuBz5e39TV5u77StU6X4r0hc+ocaD2mwm5GSEw8blhLyFPzmO86C6X17Ay9jX3zDek/21LKnIfa9/ZLEs3kccJAi686fCfq8ZKjm6Cj8jGR17d8DYuuuwomY/dP/0ZbzebCQ+utSMz95Yjcwbi74LDDnpZMa+9UcQ2aI1Gjo8G9ZC75M2XPOevaO0tDTAZkK1qlVRp05t1RAzl3YyBP3sYFTNWjVRs1Yt5UY+elTNFjGkLNp1+T4zfH95fT2CSpOGMdOmYpK6D/m9uRwNpk3FQnVsF5uz603FqJSpeAFGC/wmzLl7FZo8NxEzlWhPx7oPFuC7mrfhcpcvOPZROuLbNENt1Y0WWAoKAcP3e9EVBM9e4J9JdraANlToa+d9MgENnn0ZRe5jjrNOwyyOveb3nhJ+y7GifzL66mwlbBdNX4/n35iIG5lmzzI888nXaDOup6HmHOz44w8c0GMKXSyFrp/LEqo5K6cCfS+VKgpPIQ8J5hjlBn41lzNh7ZY1tSSNUtUO0aW+kNVTsgiUjiuKUXsZtly/i0K3KhAbAVzfiqbBMPzh9p1iFITMN6Kz9w9BoGZfnrRZwB/3VcIiEY6IYpZTWlL5JRkTFo1YK5ABTkyxmzo9WllpZeKDyeBSbN0xGXAThbRUFH1hJqFvSi9w4sMw55gp+5i0xHYd0DF1HbZxMsTaNHS/qx/2v7kJ6b2TlbWre3/tpnSQ37UN39fvjIlaEDK6VnO0rboBx04BVV2+NN17K4iP+RkOjwASqgOcMZmRDuh1Ch1WjiIhyHtB3x8eruloGvadVw9XuZ1SE09SoR5UepKJcmF6cEkq1yXdm+7nKBdWvoyZSMEkLvGmBE3RxJSoqEiDpdDQgEpkKTTF1oQpKh5hdS4CEtsjZ/HryjLIqz29YTFqDH8Nse2GKAuiNTcD1uwTyM0Mh7ss5CziWRxGbRR6HZPw8LJN6Mv7gbNZ31yH7ndNKALpxhu9OzjEIV3Eyc6HGlImYCwOokHHeti3FkjsnaIectsaA/j7KE6hB3q3X4RtJ+sXlW3cO5WOw7E1caFhqIvZ7PmHrzHb2d7nPcI/LkNDt3BERITTQujeNpWuoABZWZlOa6J7Gn3s8n12fj+MOe9l/LwVaO3pR/5a+6SfF2ZPKPoOVNb5NOChovGgLLuj4wewrkdtt67DIhxFlWeexUcOSyGttMknM+Dyq5d9hHxk7dmDTIM11/1z5lJ2EBwE/pmUhL7XJGPWp75ebBLG9HeMka6VjO7nrfM1I4aM194rAE26YHDdhfjzAFDPeVt5sRT6XMPZSxjoe6lUUVgTsfhndHfMyvkJVcyRGBDeykcafDgaH5J634SIYl/DPhZZQrLaCWHgu4z52joduKxM2/rA3hPAJ9vts4wPHixyGTNdvaom9G7l/Uv1aIYFLBtw8z3rSsq57Y0IjD66FZYCE7KapyExpo593KXZ3n6bla7JcFhP7cRXJzbiQG4sfmjURdVmX1i0nBUbszl+ffFBtXB2kuPBddCewnET7ju6Cfv3dsBVtSgCl+O3rcDP6ICx/FXtJraNRRftxyDWv0bhoqIrao9rc+adBsLDAK6bdjrLuYC1+pTT2lRYqMYXmsIj7NZDT27kWklo+Oc60N6rp1opiyBdiHqCiOGailkL1TntunQk1C4VABwU37CjQ6wbBY2hTBdLYb2LccfNhpOhuktrbVQCYga+ifC6nYGIGMAciSoX34aTS55WV8X9qKbdENnwQtgKcpG39zccn3sXrBb7WnnGS+87cSr68t540xB7fgpeWMslZaai+1pO8pngsDQ50hh5Oy2FADzMPt62sh461eR95AicYY4UTGv0Ad794QKMv3QIOp/8Hbv0+UqwTUpKwuHDh3Dy5Els3rIVnTt1QmFhoXIjawshH3Z0KdN9vG3bdqSnn1RXzrz+CAv2ctIW7GN2jdZ6Y9+VVlGzPpjxcA8XDaiyZLl5cWJrokWLmij1AVtafRV4PiieSRV2vSVZCoO71wJ9L5V69XdHd0WWLQ8HLKdAc//IqItQ3+zDQJwK61x7RQ0SgR1HXEWhbkLj6sCE7sC1J4Br3tKx9u0NF3m3EjIFy2TZ/g73RdVAg/xMoNCK7O1zcfLCh2AyjBOkIORCux13vI/I/Cy0sJxGzcjqqhlhnqxRnKTwZyoWbO3lmL2VhhWf0gTvbqo3XMmxg1jLL0TH5IT0DeuwFpwdyZCETt2AmW8ux9rG/TBKH3+6DujmmC1rKArNW+OyD1dhyfpmuFFbC4/uwkbURF/3cRvGfEG+bwoLhzU7A7ZdW2BufgFMF14K66dvA4lJavl2tYR7dgZQvbZ94snxw6Aw9B7Sih5KR1fhQzX71PFr2C1TMWuhx0kOOtMm/LwyGd1pQaRYd7NcFbcU7sV3bx9Aqzua4uD3uTj/stpI37gdB2zVcN75TVGNl2DNR6E1HOHhJd8jugVnb2uDKSIOYTXbwFSljrMZEXXPBxw/siLqtIYpIlr9IaYqInkcFQtTdq4zfWk7rVNS8POoR/ChY8yZS3o33spSyAQG0a5nH09K6aV+gNnzb8LsaXRnJqNVLTPWjf8Gf116HbiYjjNwDbxVx9C0b3c0qpqIOnuO4PjpmqitrIUWWCw2hAV5F7Vr2xaHjxxBbEw0pr34Il584QU0bkzzaFGgOKQg5Mzjl19+WX3LMS65hJnHC9Zuwqjz7fePWj7mz2S8QG+Jhx+sV10zwTFR6xHs1+Oji31vcuhGKpBi9Kg42nh+BwyZ8QGW7uyBGx0Tjfd//TXMPY1uSQDF+ohrqxeqyTNFVxt8e0HxTPIZS9H3qOtzy17Aoj+2YGTrNuogc+1yLD7UGKOdVkJGh66lMND3UqmicEBESww59Z6Ca7VasDh/KygUgy1c3MSGZZvzMCDZ+4hrisNBySYsWG938cVGmnB9KaKQZbJsfwdz/T7I3/MFwi0HEHdgJRAWjcwWN8MSU0uNeQrP2o+qW99BZPpmICIMOQkdkFi7G0wFp4EIg+/I2TDXyQgUdWPotirpDV50t+Bl5/p3HXsnq1/Suki6kJG6HFddY//StR/Tbebpl3sLDHw0HF+9shAz1hgnmjRQbnJdZqhtOWHKxGVnvvoUtt5XwzxyApCfC9tv38HGsVy0ErZoB/Poh2BKSITl/qtgK3RMQCl2scno3jsVPx+jax1qNupabMLaUY+4pHQOlmcsrU5qFrJ9FqxKqMZFbYIeEK/i3F3TXqwf2lK4/+tvgIG3ojYOwW4bjkXdthdCr1hoyT6O0+GJiPd+O7m0OSgP/Hjb2l38aWrM5w1rH8GwUXrigePKjbyNlkIjGMfsY2OUEiAPTXWsTdkGN063P8iMaVz3E9GwWTa2HtjjmGgSh6q+rMPlWkiFHw0dMhjLli/HsGFD1VtLbh19O7p37Yo7bh+N5s2bq/bs2r0LH3zwEX7+5RdkZmYijILebMKwoUO9tvcqrFOLttsTuPWJp1xqGZQkNZt/GOzpR03rhykPPYJhjvTq/vOUF8kY+exxTH/2WYx1uI/VBIZiaRPRsLUF+/7eg30O93FCQjyCXLcjIM8kF7YlPZNohEjCLPeJJsXY8ruzF8amrMNtDpe/+3OLWYZgPUaN/0wtqxUX1wZjHnMT7ghdS2Gg7yXT/kNHS/zq/KpgJ/6VucT52rooczjeib8eF4TZBwt76jMdp/Pq40hTOD6tegvqm/0/wIyLV6fMMeGniTVKXKuQruShbxQqF9+NHcMwsb/3WzUzD7j42eNIHWkr8VV3J44fR/UaJU4X1AhctlHH1qPmbxMBS4HytFvN8SiMbwLYLIg4tRsm5AJhJljDqiHtkhmo8tcixKZ9g4ymNyO7yWCXsuSgZALl6SP17mPHOoU4nQ3TgBthvutxICICyM2B7eRxgGusxVdTAyWsf/wI6/NjlajnRCGP7z52uCX1UifeWq1FiLI0dVwHvcC1UTDqNBSHY5FatCC2ex1888wT32AnF2mNqY+R/7oVnR1zgYBM7Pr+V2zLc1vMNa4a6tatWuHur/L0U5U5DWEKj0VU39dgrtvVwd+ErF9ScWr5vxXiqv0fQpWuIxyufTPy9qzBiQ/uh81agLB/ub7+QHNV7B0zuTnEomi5HxbpmLFKSyDTqOVrkrDAMYvSLtjTiq0G4Ow/9tGyJExSYxSNn4Jt+Gzil1gdFwPnzFbj6SDYL08fsdm0EH65dBn+7513sPjLL7FlyxY8MXEiate2/8jct28/brn1NjUuNzIqCoUFhRg0cCAemDDOw1Xr2ceBX9fOQ+VBH1XePgr4M8nTj9wKp8klaXYioq2H2ccV3Jby9lMg76VSReEdGR/j98IDaias5pUUVgWvJ1yLZma7O1PHG7c/FPyFh7O+RLbV/oYOnkuJvggPxvUwJvPr/gsrw1AvMRKPDCx5Ycrxn1iwaocNn98dDloPvYWpX2TjYHo+Hu5d8njCcnUsJ+mYzIg6vAaJW2YirNDh7+Cgccp0TnAwAQXRTXCiw8OwRCeh3lfXALFhsBTUwOE+c7w1W+I9EChPHylR6ChL/XLKybZbBXsNA1q2U5ZBW24O8PefsP3xPWw/LVdjC7n2JINHUeiYEOJ8o4mHtp7LUeXppypzGql3H/NHVW5Oohqny5vIevokbIWONwSFR8EcSyVsHz9sy8uCNS9LuZPD/mV8N925TN+3ay9PH+nJIw89/AhOpJ/AhPvvR0JCVTRv3sxZaW5eHm66aThOnjoJszkMnTp1xFOTJ6m1DPW4Q2di9eo642zVojOyB5Snj+D3ZxKF+3I0nKhd8fYfUvuK/cA6d3usPP0U6HupVPfxVssR3BXTBZ/mbUKaJUtZDI9YMnFD+lykxHTEzVHtUTus6B0JeyzpmJfzOz7K3wiblcLH/iVc1RyFO2MC63a+vasFKXNyMah9ye8/Ht0NyLGYShSEGw9YMO+XXGUlDMhH1vGO3Lw6nZGW+Api969E9NE1CM9O48oNKIxvgNykTjjdoB9s4THKmpjZ5AbEHPsFma08LEIckEb6q1D7MhpZsVy70Li2Wklj7/xV95mXw5tQPZRi42HbtRnW7evUItUcb6hef5eXYxeDsVWUO9mZ3kvVzqVjvJyX6PIRMFszEGnKRM7pcFgKzM7vHpZGcWg5dbhodrj6XvI+wWoQLyMAACAASURBVKx8LZBc3gjw/omKjMS0qVPx6qyZmPDgv5TVdvGiz1Elzv4jnhNPTmWcQnh4OK688krc+497XBa39la2xPuJgN+fSUnoe1c99c5vtUITZ3WLIDzjzgr0vVSipTDPVogux1/FG1WvRRVTFEZnfIg8Dy9frxoWgwamBByxZuOY1f6+VFpW+JXLbVVzNF6veq1PLuczJfbDbhNeXGXCovsTUSfe+5c+1zHksjWeAhe8HvJKOh7sZcOlzZSNyFMyZ1x51L4zs+PXmT42Febap5GEG2ZnGNMU5gPhoTzQS19pxW7L00culkLH8komLkdDQWGxFM0yVnFmNfuYFl5t1fBmKazYKw+t2srTT3EfXghT7nHnhRbmmXH6ZDisFu/3vz0x35FcG2H3/ujMKzulEyhPH7FU44+ldes34Mcff8Add9yhxCLP5+XlY27qXHTq1Bkd2nNdJdc8KkL++USgvH2kCjc+b/gcl2eST8zLk6i8/RTIe6lEUchB9h2PvYJ3q16PDhH1saHgIB7MXIzDlkyfr5+C8c2E63B+uKfJCT4XU6aEn6w3Y+4a4N1RVcFlacoSaCEcPfsUbukMn993XN6OLUu7JO2ZEZA+OjN+FZVb+qmiSJe/Humj8rOrqJzSRxVF+szqCcZ+8j7LQln6TKgXloAsm30tr3YR9fBBYgoGRrdGmMmsfvmp19nZbVvKtawRRZjCcHPMhfi02q0VKghZ/7XtrcrKN/yNk+C4QE4YKS0wDdMyDy2ELEOCEBACQkAICAEhIATOFQKljim8MrIVVuf/jUsj7StnJZpiMTV+EMbH9cAnORuwvuAg9llO4ogtC7G2CDQMT0TnyIa4Kbo96oadvfUM6fZNHQm8szofFz+biz4XRKL/BVHqXcb6dXhc7JrrEHLZma8256NnK3OpM43PlQ+GXKcQEAJCQAgIASFwbhEo0X1MFBnWXIw7tQDPVB2IekG4aLUv3cXlar7dZcZPe0zYnw7nu4z5phIuTM11CHs0t5a47Iwv9UgaISAEhIAQEAJCQAiEKoFSRSEv7IT1NJblbUfXyEZoFJaI8KBfhjNUu0PaLQSEgBAQAkJACAiBs0PAJ1F4dpomtQoBISAEhIAQEAJCQAhUFIESJ5pUVCOkHiEgBISAEBACQkAICIGzS0BE4dnlL7ULASEgBISAEBACQiAoCIgoDIpukEYIASEgBISAEBACQuDsEjDZuDS2BCEgBISAEBACQkAICIFzmoBYCs/p7peLFwJCQAgIASEgBISAnYCIQvkkCAEhIASEgBAQAkJACMiCg/IZEAJCQAgIASEgBISAEICIQvkQCAEhIASEgBAQAkJACAClvvtYIAkBIVA+ApzDlZObj0KLBVartXyFSC4hIASEgBAQAhVEQERhBYGWas4tAhSEmVmnYZXJ/edWx8vVCgEhIARCmIBMNAnhzpOmBy8BWghFEAZv/0jLhIAQEAJCoDgBEYXFmUiMEDhjAnQZSxACQkAICAEhEEoERBSGUm9JW0OGgIwhDJmukoYKASEgBISAg4CIQvkoCAEhIASEgBAQAkJACMiSNPIZKD+BTZs2Ye3ateUvIIA58/PzkZKSAm4lCAEhIASEgBAQAqUTCOjs4/3792PGjBl48cUXS29JgFPs2bMHSUlJiI2NDXBN5St+586d+PDDD/H999/j4MGDCAsLQ8OGDdGtWzcMHz4cTZo0KV/BAco1f/58zJ07F2azGQMGDMDYsWMDVFP5il24cCF+/vlnLF68GNdcc035CqnAXJnWHIw9/naZapxR43ZUMwfn57lMFyKJhYAQEAJCICgIBEwUUhBSzPzjH/8IiguNj4/H9u3b0apVq6AShgUFBXj22WdBETN69GhMnz4djRs3hsViwd69e7F8+XLceOONuPrqq3Httddi0aJFmDBhwlll+vHHH2P27Nl4//33YTKZVD9HR0fjzjvvPKvtMlb+f//3f7j11lsxZ86ckBCFey1Hjc33aX+/5RiqmRv5lDYgiTZ/gFeWA33H34g2xgq8xRvT+Gl/yfB4pOwYj9W/TUFLP5XpczEVeJ0+t8klYRpWvTMXGzPskfFtb8HoPkkuKQDXNGjQH/dfn+xMs+Wjl7Biv+MwoR2G394XtZxnZUcICIHKRiAgotAoCG+++eagYFajRg3VjmAShhSEFIIMS5YsQb169VxYJScng3933HEHxowZAwodii9a5SIiIlzSVtQBxevrr7+OefPmoWbNmqpaWgzZz2zbLbfcUlFN8VrP6tWrldv48ccfR58+ffD777/joosu8po+GE7sLzhe5mYwT3LE2RKFaVj1y35QaLgIQooMj/Flu7wdky9C1yWDXcSep7iylerP1P65Tn+2yL2so199DQx5APdTB6atwLvz5uLjug/gugt0yk34ePoyZLS9BfcXE4vA0a/ewoqMdhg+nkLQLh7nf1TXRTTqkmQrBIRA5SDg94kmwSgIdVdRGDZq1EhZDE+fPq2jz9qWFkIGiip3QWhs1PHjx0H3MsfHZWRk4LvvvjOerrB9ClcOB6D1rXbt2s566ZbnNbz99tvKBe48cZZ23nvvPWUlpGt75MiRSkyfpab4XO1hS7rHtAuaPwr+eQre8nhK6/e4tPXYk5GAJu3cLE/e4v3eAHuBg+ZnIv1sWAkr+DrLg69WnxvRS3dPUl90awAc2LLJWdTRr37GgQb9PVgPmWQTvt2YgfrdtGUwCb1YwP7N2OIsQXaEgBCobAT8aikMZkGoOy5YLIYUebS6UWiVFugy5hsydOA4ud69e+vDCtkuW7YM06ZNUxZCTwKWcampqcqVHBUVhWHDhlVIu9wr4Wfw119/xcsvv6xO0eX+6quv4siRIy5C1j3f2T4+ZD1Z5iaUOY9ydzp8gW5uQlqF5ms/IxoUuYQdeer3M1qYgKMb9iAzoQnaatHhaH2x+MU3IXGE4zM+6H2kzx/svE5l+Zux03E8CKmn/odB2IGnOnWEPXo6uladDgx6EeN2POgWZy9LuY9RVC6Pn2qxFpN3dkSKvrVaFHcvq3yG86mDFiPFaJksod1ssOt12q1oexrfgm7pc724W+1WOfTrDyxfhgMGxq7sAaML134OaDviTofAc7h7E/qjL5bZLXkGl65Kv7eJVzdvfKLusDRs3Au0HVLkKnZ2DHfSDiEDDdDNaVUEcMEFqL98GbZsBtoY410yyoEQEAKhTMBvojAUBKHuqGAQhpxUQtexJ4Gl26m39913H/i3bt06rFixAj/99BPy8vJA8VURYdWqVWrcIy2EDRo08FolJ8YwzYgRIxAZGYkrr7zSa9ozOXHgwAEMGjQIhYWFxYrhWMzbbrsNMTEx6hzHkg4dOhRXXHGFmrzjniE8PBxffPGFT/3gntefxyesWWUurkx56D5cnoG2Ix6wi4vNK7AqLVntO4WEchPa3Ybzp38AuI8VdLbQYUXqp61I+oRb/I5J6DJiB8atycRkDvhbPAlP7Ris9p2u4FP2sYDquOpNShhO/i0TNxdzH9/tIU7X67rdOaMj5s/LRPp8xi/GiKo3I2VyCn59yj7q0C4ItQhlEgrXnUALRzkltNuewu06HdkyN87Fln4P4P7rGeHZ3Xpg+Wb0Hf8ArnPksY/Zowi/0+GGt4vHVz6CctPW6jMMbffOxcZvN6EXx/pt/hobMxqg7+3JaLN5M1Ys34ONaXAKxo17MxDfuH3xcX+bP8CK/Q3Q93qHKHRYOrthBd6dvgGZqj0JReLz6AlHnKOhshECQuCcIOAXURhKglD36tkWhpxlzEklZQkdOnQA/yoy0FV91113qQkvvsyAbtq0qZqEMnjwYLzxxhvo1auX35tbv359zJw5E+PHj1di+brr9CPWXpW7WH7iiSfw0EMPubSDk2VeeeUV5Q73RZi7ZA7AQYalaDiDJ3exMe6qXc+rFhjzlNok9ZBPQB1tKLqgL+w9Q4FDS1SRwKvVpzvqb9QWoRtxv7tVaPNmu6WrtPgdO7ATLdFJzwAZPAWTVUMX46kZwLg1RZNDWj41BQNn3Iz5i4FBRcbEUi/LY4JB72Oes4zBmDyuBbouScWOp1jfYsxfAgycR6ukIwz+H1IHccKK49hrux3nvV1/g/6G8XpJ6DWkHfbM+9kpvpk7vm1PwxjMTdiyH6jfzzhRJxnX9duMV5bTTZuMNjCWA5xYvh+02qpxnA7L3QnOUWK/KqHXAN2c4wPtAvMAK+YkEYfod1wFgP1Ysag6ho9/QIlI9eNg3geoo38MJFR3E5dJqJ4AnCgqQPaEgBCoZATOeExhKApC3Ydnc4whl53hLONgDrRIPvbYY6hSpQqaNWvmc1P1DO9HH30UP/zwg8/5ypLwsssuU+MXOfmG4xw5yYXLDfGPy/kYA4/1OaZjeub76KOPwHKCIYTDtc2+tCnMVIY8FBAUAdNfwrtfpRUVrwROBjbOewmvTNd/dG96D1uoZBpcYBA39rTF4genYCCWIKVqPLpM1oqLlrlUfIGdmNE5HolV9d/N+MJ7lWU606KFVqEesqm6B2G4UzTa07Rooc2EALy121Fcset0xBe5Zj3U64hKqKtVOQCHuCzmilV9lYHDupvUeED20TI1BrBookgyerRNcI4TVC5tl35JxnXjH8D9/BsCLHLveySg7RC3HwPYr9zDqrkZJ+A6Jz4NJxwzmb1foZwRAkIglAmcsaXwqaeeQv/+/dXs01AEQWFIVyzXMWzTxnUeZTBeD9tKd26gXLPGa6Yl86233lLuYGO8L/sUYrQUTp48GZdeeqkvWcqchkL1s88+w7333qusmRR7FLDeQlZWFsaNG6f6m/kSEhK8Ja3w+NphVbG7MFfVqy2BPNAWQmOcblzdsGp614ctBQLdj1xGZi5e2ehwFaqchjGEpZWUtgK/7Gdet7FoHuMHY96pTId7tiMSZ7TAuDW/O6yFBvdtaXVW+Hkv7abW9HidgW9grcQEYH9xRVarXRPEz6NVMQmH93JiiFu/6KYl9cXofifwyvKvsaWP0TKpE3DriyUwAdVlTRojNNkXApWKwBlbCrk2HSdMcHB/KIbs7GwcPnwYdevWrdDm02XJdQjLGnbv3g1a4Coi0JJ2/vnnl7squrr52QhkoLDjbGPypBuZotlTYDzPMx3TB5MgZHvbR5V9cfK25VmO5oIbcf/4W9A2IQN7NqQBtaoj3mgd8gTPEOc6waLohLd4lWLw/5B+ai3GtdiJJfN2AC1bogWWKFdxUQkVtKfq3oHfDIZL1syJX8WCe7uLTTBxzZGZrk17jnh3l71rcu/slQXR4OpPW4FFdPH3a4f4/cvw8WZDQUnt0SRhP7Z8xdngDXyfAKLyZUC5np3FGSyBDssyJ5U4g3u7nCdkRwgIgcpC4IxFYZcuXTBr1iy1jl6oCUMKQq5byHFwiYmJFdqntJ599dVXZa5z5cqV6vVtZc5YiTPQKvnPf/4TJ06c8Dr5huMMef6ee+4p5l4OBjSXRbVBpMl3wz3TXh7tPqivhCvZ/IFBTNgf/sqVqZcqWf6BYamRTfj4nRV21yEti9NfcuTljFVPExm8xC++CSMW6zbtwA7O5ejcEmg5BZMHAV+MuAl6ArCaENJpErRWa8l0OzkmsSh4iis66+NeyxQMarETM4YX1cWJJs6ZyizGW7vh5Tp11S6CbRM+Xs51HI1jCHVCx9Ybe5d8aVi1aAMyG3RHrwv6Ygjdxb84+kYVk4S2jRNwYCPTGF36hj5U6dzb48hnKGvLR8twIKEdeqiPVTLacAkb53m9LmMJ1+N2eXIoBIRA6BHw/SlUwrUZhSEFIo+DPZxNQUg2fEvJDTfcoN5S4utEh0OHDqn1ALlEjQRXApyZ3a5dO9dIt6NOnTphzZo1Z225HLfmuBxWD6uCYbFd8VH2jy7xntzGTDA0rguYx+dwQU9Uf+cl9QYS5lFvt3BoyjbXPwDwzRXTX8IKVaDdnVzMS6hnvjonMjhq9xY/eApadopH4gh7uhbj1uJXx1g+ri+YyreRVI13FGJ3JztHAw6egnEtOtrP66VsPMU5cvu+aYnJv60FOnW0L3fDjIPex+pxO9BVK1Rv7fZ2nY7K49v2R/VfihirpWXcWbk1lOxrcTkgJ3tH3zjybfmIbySxzzZmVjUJaPoyGBeRtk8M+hnVexhdx8m4rttmJeh1le5vNKnV504Md9St0ri9saTN9bfg8DtzMX/6BnsRXMaolOvRdclWCAiB0CRgshkXwDvDa6ClkG/eCHZheLYFocb85JNPYteuXUro6ThvW3YTl3rhG044+aMiA98GwreClCWUJ09ZyndP+8ILLyAuLk59/niOk2Q4xvD+++/HJZdcopLz1Xx0vz/99NPu2f1+fDKj7EvMcCXKOZnf4OvcjSW2p2d0W4yMvwKmElP5/6RaPgWur0FjLd7i/d+CwJWo1zfUy9Z4qsn7dRatU1j8NXKeSvJvnHNJIcN6hf6tQUoTAkLgXCFwxu5jIyijxTBYXcnBIgjJbeLEiQofXw3H2cjeAs9xTcNatWpV2HhCb20J1vj169er5Xo4dvCZZ57Bgw8+iAEDBuDhhx8GX3fHSSadO3dWlsJgvQaKvFvjr8Bd8X0RY44s1sxYczTuSeiv0lS0ILRPsADqtzFao/TECw/xxVofLBFcHPsiPKX91GyWch+3wKARTjtl8caqCSbBeJ2ONROdbx4p3nSJEQJCQAj4SsCvopCVBrMwDCZBSFZ8f/G7776L5s2bq8WYufbe1q1bwVfw8W/btm1qPb6rrrpKzYx+8cUXYTJVuBzw9bN01tLRirpp0ybwtXZcqDotLQ1Lly5VQppbLmjN2docU0gX/MmTZX97SEVe3MXRrTG52g1oGl70KkHuP1X1BnSLKkG4BLKRnL3KRZfdhzF6iw9kW86obLqPp2CHcTmcEUDqqd/tC2x7KzsIr5OWy1emuy9T4+0CJF4ICAEhUDoBv7qPjdUFmys52AShkRX3OfuRbznhota0DHI9vZYtWyoxyDd0+Dru0L1cfxzTSlmSJdNTHWwvBW9FBE4W4mLZ1apVAxeqpjB0D+TKWdtHjx7Ff/7zn4C/JrA87mP3NsuxEBACQkAICIGKJBAwUciLWL16NaZOnarWkqvIi/JUF61utWvXrvBZxp7aInH+JUBr4Pvvvw+OK6xTp47XwulCfu6558DFtW+99Vav6fxxQkShPyhKGUJACAgBIVCRBAIqCivyQqQuIRBMBDKyTsNqtQZTk6QtQkAICAEhIARKJOD3MYUl1iYnhcA5QiDc7VV758hly2UKASEgBIRACBMQURjCnSdND14CMdGRMMukoODtIGmZEBACQkAIFCMg7uNiSCRCCPiHAGdF5+Tmo9BiEVeyf5BKKUJACAgBIRBAAiIKAwhXihYCQkAICAEhIASEQKgQEPdxqPSUtFMICAEhIASEgBAQAgEkIKIwgHClaCEgBISAEBACQkAIhAoBEYWh0lPSTiEgBISAEBACQkAIBJCAiMIAwpWihYAQEAJCQAgIASEQKgTC09PTQ6Wt0k4hIASEgBAQAkJACAiBABGQ2ccBAivFCgEhIASEgBAQAkIglAiI+ziUekvaKgSEgBAQAkJACAiBABEQURggsFKsEBACQkAICAEhIARCiYCIwlDqLWmrEBACQkAICAEhIAQCREBEYYDASrFCQAgIASEgBISAEAglAiIKQ6m3pK1CQAgIASEgBISAEAgQARGFAQIrxQoBISAEhIAQEAJCIJQIiCgMpd6StgoBISAEhIAQEAJCIEAERBQGCKwUKwSEgBAQAkJACAiBUCIgojCUekvaKgSEgBAQAkJACAiBABEQURggsFKsEBACQkAICAEhIARCiYCIwlDqLWmrEBACQkAICAEhIAQCREBEYYDASrFCQAgIASEgBISAEAglAiIKQ6m3pK1CQAgIASEgBISAEAgQARGFAQIrxQoBISAEhIAQEAJCIJQIiCgMpd6StgoBISAEhIAQEAJCIEAERBQGCKwUKwSEgBAQAkJACAiBUCIQHkqNlbYKAU8EMjIycPToUVgsFk+nJU4InJMEwsLCUKtWLSQkJJyT1y8XLQSEQNkJiCgsOzPJEWQEKAjr1auHmJiYIGuZNEcInD0COTk5OHjwoIjCs9cFUrMQCDkCIgrL0WU2mw2ZmZkqZ3x8PEwmUzlKkSz+IkALoQhCf9GUcioLAd4TYj2vLL0p1yEEKoaAjCl0cM7NzcXbb7+NDRs2FCPPL9Y///wTdFMyMO3kyZPVH/clCAEhIASEgBAQAkIg1AmIpdDRg2lpafj444+xatUqzJgxA0lJSc6+PXbsGMaPH48ePXrggQcecMaf6c5HH32ERx55pEzFzJ8/H127di1THkksBISAEBACQkAICIHSCIgodBBq1KgRHnvsMYwZMwavvvoqJk2ahMjISHV2z5492LFjByZMmFAmV3FJom/o0KG4+uqrMXbsWJc+Wr9+Pb777jtce+21apycy0lADRx3j5NjISAEhIAQEAJCQAicKQERhQaCl1xyCUaOHIm33noLHTp0UMKMp7///ntERUXhm2++AUVbYWEhtm7dqnK+9tprCA93xXjppZeiU6dOaNq0qVP0/fjjjzhw4AAoBqOjo9GwYUN0794dl19+ubMFdFM/88wzanA4xSLTSBACQkAICAEhIASEQEUQcFUzFVFjENfBJRxGjBiBX3/9Fdy3Wq2g6/iHH35AdnY2UlNTi7V+586dxeLq16+vRCGFIf8Y8vPzVXl33303EhMTi+VhBOvYvXs32rRpg5o1a3pMI5FCQAgIASEgBISAEAgEARGFblTr1q2LefPmISIiQp2hK5dCja7giy66SMVxqQe6mhmee+65cs98PXnypHJT79+/X5XFSSu7du1SopHi1D3QpU0LpoQzI3D8+HEsXboUGzduVLPIOYO8bdu2GDBgAGrUqHFmhUtuISAEhIAQEAIhSkBEoYeO04KQ6999+umnoDu4devWHlKeWRSXtqFLmVZJuq69Ba419sknnyAvL89bEon3kcCWLVvw7rvv4oorrlCThmi1TU9Px+rVq/H8889j9OjRylLrY3GSTAgIASEgBIRApSEgohDAb7/9plzEulfpvu3Xrx9oQeKED1oPY2Nj9Wm/bzt37oxx48Z5LZeChaJQwpkRoIWQgvCf//wnmjVr5iyMb30YPHiwEoP/+c9/8Oijj4rF0ElHdoSAEBACQuBcISCiEMBff/2FmTNnOvuc4/5oSdq0aZMShDzBiSI6cHwgl7Bh+OWXX5yzlPV5bjmbuTwTRbgeIq1VnGhy/fXXG4uU/TMkQJcx+9UoCI1FMp7nmc6T+96YVvaFgBAQAkJACFQ2AiIKASW+KMDoRrzjjjtUH3PSB92J69atK7HPKQo9halTp5ZLFHoqS+L8Q4BjCEtbZ5JrQL700kv+qVBKEQJCQAgIASEQQgREFHrpLI41M7psPU0uoVt3+PDhkAWlvUAMsmi+mtDbzG/dVJ7XrzDUcbIVAkJACAgBIXAuEJDX3J0LvSzXqAhwjCitwSUFnk9ISCgpiZwTAkJACAgBIVApCYgo9LFbOfOXM4WrVavmcQyhLmbz5s3qdXmnT5/WUWXacjIE65F1CsuEzafEXHaG1t2SAs8nJyeXlETOCQEhIASEgBColAREFPrYrVzKZNu2bWqGKpeQ8RaysrIwceJEMH1JgW9F4Z97oJjkG1Jo1ZLgXwJch5BvpeG6k54C43me6SQIASEgBISAEDjXCMiYQh96fN++fZgxY4Z6FzEnIpQUuKZg7dq1lUXRPd2pU6cwd+5cZa1iOk5GMQauW7h27Vo0adJElWE8J/tnToALU3NmN5ed4Sxj9qVxnUIKwqioMBw/flSWpDlz3FKCEBACQkAIhBgBEYUldBhfc8f3Hj/11FPg20dmzZqllprRWapXr66WrFm+fLl6zzFdzCtWrECdOnWU2ODM5Z9//hkrV65Ub8+gZfCVV15Rs5K5DmLVqlV1UWp7+PBhfPvtt2oxa75er0GDBjCZTC5p5ODMCHANSq5DyGVnOMuYk0r0G00YT0H45pv/wV13/RMtW/p/wfIza73kFgJCQAgIASEQOAIiCh1saaXjkiVcs5BjyrgW4ezZszFt2jTwXca0FHbv3t2lJyjaLr/8crz33nvqjyejoqLw7LPPgoLxgw8+UMKDiyNfffXV6N+/P9q3b68EI8Ue66AQ4cQGuo0pUnbs2KFesXfTTTehT58+eOSRR9CiRQvMmTNHbV0aIAflIkCLobd1CHmOgpDC8MEHH0WdOnXLVYdkEgJCQAgIASEQagRMNqqhczwQAa15Dz30kLLM0eJHMTZkyBBl6dNuRk+YmJfWJovFok5HR0c734XMSSMFBQVISkqC2ex9+CatgnQlf/bZZ2rR6rvuukvtU1wyjBkzBrfddltA36ri6dpCJY5CumXLln5t7uHDh5R4j4qK9mu5UpgQqEgCgbg3KrL9UpcQEAIVS0BEIYAlS5bgiSeeAF83N2XKFLz//vvqDSetWrXCddddB2514CSQpk2bKmsexSDHG3oKdCE3b97c0ylnXG5uLhYvXqyskHzP8r333ot77rnHObuZZVMY0iXduHFjJRzZRnEpOxGqHXnwufKQIyGgCci9oUnIVggIAV8IiCgE8N133+HNN9/Eyy+/rKx6eiwhj/mqu7IGCke6e71NSuH4RLqWOenk0KFDSvA9+eSTuOyyy4oJPlogFyxYgH//+9/IyMjAa6+9hp49e5a1SZU6vTz4KnX3ysWdAQG5N84AnmQVAucgARlTCKBLly5o166dc8YwXb09evRQf3zdHcf+USj+/fffauyft88J33XMSQu05JW0pAzP0crIsYSTJ09W9URGRnoslsvfXHvttejYsaOahMIxjBKEgBAQAkJACAgBIeBvAmIp9DdRH8ujBZDi56Dd8gAAIABJREFUsaSxhj4Wdc4nE2vIOf8REABeCMi94QWMRAsBIeCRgFgKPWIJfGRJC2AHvnapQQgIASEgBISAEBACrgS8T4l1TSdHQiBoCVBg5+TkBG37pGFC4GwQ4DJX8uPzbJCXOoVA6BIQS2Ho9p203EGA60DyDTF6WSABIwSEAJQg5L0hQQgIASHgKwEZU+grKUknBISAEBACQkAICIFKTEDcx5W4c+XShIAQEAJCQAgIASHgKwERhb6SknRCQAgIASEgBISAEKjEBEQUVuLOlUsTAkJACAgBISAEhICvBEQU+kpK0gkBISAEhIAQEAJCoBITEFFYiTtXLk0ICAEhIASEgBAQAr4SEFHoKylJJwSEgBAQAkJACAiBSkxARGEl7ly5NCEgBISAEBACQkAI+EpARKGvpCSdEBACQkAICAEhIAQqMQERhZW4c+XShIAQEAJCQAgIASHgKwERhb6SknRCQAgIASEgBISAEKjEBEQUVuLOlUsTAkJACAgBISAEhICvBEQU+kpK0gkBISAEhIAQEAJCoBITEFFYiTtXLk0ICAEhIASEgBAQAr4SEFHoKylJJwSEgBAQAkJACAiBSkwg/NixY5X48uTShEARgdO5+UUHIbhns9lUq61WKywWCwoK8pGdnY2TJ08i/fhxADb07NkzBK9MmiwEhIAQEALBQCA8NjY2GNohbRAC5Sbg62c4Oyev3HUEQ0Z3UZifn4/IyEjVNEthIWCzombNmsHQVGmDEBACQkAIhCABcR+HYKdJk4WAEBACQkAICAEh4G8CIgr9TVTKEwJCQAgIASEgBIRACBIQURiCnSZNFgJCQAgIASEgBISAvwmIKPQ3USlPCAgBISAEhIAQEAIhSEBEYQh2mjRZCAgBISAEhIAQEAL+JiCi0N9EpTwhIASEgBAQAkJACIQgARGFIdhp0mQhIASEgBAQAkJACPibgIhCfxOV8oSAEBACQkAICAEhEIIEwkOwzdJkISAEKojAmg3b8c6HX+Jfd92A5o3q4bXUz7F63VaPtdeoloBJY1OQWDUeObl5Ku3V/S5R+Txm8BCZfioTs+Z+jjG3DFXlLFjxIw4cOY7R1/XHux8vw/AhPVU8s7q3pV3rZsjJzcfOPfuLlWxsW7GTjgi2+cW3P3bm79rhfNybMtRbcq/x7uV4TWg44akusl/63W948I7rEBMdZUhdfLciue36+yA+W/6jYsN2ldbX7m3TrWf8v9/6CLffMKDEzwjTzV/0tfoMeOLgqXx+Nrq0a4Xq1eJd2qrr5taY79tfN+DTZT8YTzv33T877JdfN2x3+Wx4itMF8NzMOQv0odetez1MyDZOmZmK4yczVD6mGdCjM+YtXOks55r+l+Kqvpc4j/WOzntek/oubdXn9dbIgfduRd5zug2yDR4CIgqDpy+kJUIg6Ah0btcK5zWupx5Mw4f2Ug8XLZT0g5dp/BX+3HtQPcj5cGKoX7umEoXc1+3QwpPtoEjUIjI6KlIJx1ee+Cf0Ps8zMI0OJT2kx468Ck+MGaGS8mFJweNJiOiyPG2ZXpfh6byOYzsOHDnm8YHONBQebVs18an+QHNzF+Bs392Pz9CXorYbtu12Hrdo0sApZtmXAy7vpD5Duu/I1hdB6CywhB1dPvuYAjo3Lx8nTmaqz8uJU5kl5Cw6ZRRVxn0tkPTnkTnYLwwjH3yhqADHnvEHk2bAU0bR70lEa2HmXiDrHTNymBK2w4f0wjsfLVVJdHnvfrQUbVs1dc+mPrfkUb1aAv7ccwD8rHm7TwP92SnWOIkIagIiCoO6e6RxQuDsE+CDafrj/3BpCK1FfLglt2ziEl/aAR+yRotMbHSU0wrJ8mixoXXRGPiAZ+h/WSdVJ61GWpga03Gfae9/+j/OaP2QpoXFGLxZV4xpjELAGB+ofXc2uh4jLx3HrVF0BJobeWvmZbEUul+TsW94DU+9Olddki/9Ybx2930KHoq1TTv2KKFNa7GxLi1g9eeNFlj92WA6XT/F79Oz5ilxScs0g75u7lO88TNGS7YxnqLL3Xro3kZfj40/Wij+KKg9BfYDRW+9pBoup3kf0eJNKynbyHQz5yxUx7T2G0NF3nPGemU/eAmIKAzevpGWCYGzToAPSQY+XIwPK90w/bDlsX7gbtz+l1P4aeuRPsd0tMbxIc4Hki6f8eqBfvgYqjushIzjg42BD+r9h4+qff6rX7uGRwsb05dmKXQWEuAdT7w0B/eHM5tCC5W2UmkLlVF4eGsu6zlQgdzY9gfvuN6lOXTbexN4WnAxg7aI6eEBjOO16sDzRnepjudWizgdp0WxtuSSFfPTtT35vluUS9pdwOq8TGu0MusfABymQEHFz7W2xuk83GqrGi3R/Ey6D1XQbXR3BTNen9Pl6XtDHxt/uLBuur8pXmfNWajcx0zPa9bXy/usR5d2zmOWo/kZXcbsr7EjhylhyK3xs1fZ7jnNUrblJyCisPzsJKcQqPQE+PDkQ1tbT+a8+LCyPLzz4VL8687r1VgvPryMrik+dGjVo+Cj1Y+WDFpdjGLPHRwFIh+ADHzwchzj6dw8ZzItJJ0RZ7hD65s3C5yxaE/CwHi+tH1jfncR7C0vH+y/rt+uxtrpNEr4eXA1VxQ31mMcb6nbxW1JQpfnPbE2WvGYhsJRB7o8tZuZceThPqZQx/E8P2cUXFokPvfgaF2Uz1tt0TReC5lrFzH7kYKRn1H9QyUmOtIpPplWWwrJSlsZdQM8fQ6M4215PcYhDjof6xo+tKfTffyZQ0Abrec6rb4GT/cK78nJY1OU4NaCsaI+O7p9sg0NAiIKQ6OfpJVC4KwRMFqw+CCZ//nXSuzRuqKtLRzvp60t5Wnosu/tgpCCgGW9/sw4VQwflhx7ph/ExrL1Q5BxFBlX9ujiV/exsa6K3KcA6tK+lYtFx1v9FcWN1iktTvhDgccUQvM/X+UUcDymaHKfGFMWS6G36ywpnu2hi5UWwgUrfsKX3/5aLLnRom0UaCdOZqjPDoUUf/Aw8DPHH0G0Zuo4xvPzdjo3F9Vht167V0LrdaACf1BRhOrA+4HXTEHM69ci1Nhefe/oiTy8PzkMhNcx/pn/okv71qq4irrndNtlG9wERBQGd/9I64RA0BDgQ4auvR5d2ynhph+cFAtPzUxVLiqja8rXhuflF6hZw7dfP8A5kF7npZuOAoSWkeaNdKx9S7FK9xktLHyA68klweI+dm2tb0cUVhu37XY+8N1djtq6SVfjQ3fdUKHc2LfkTQFCIULrsLYQU2hwlrinCTZltRT6Rspzqqv6Xoybh/RUwk5/Lmh51lY85uIPG+36JUd+Xjg2757HZ7hYp43WTIpGTmC5omt7Zcm2l1PkMtetMfaPjuO2rO5jnZefe+0+/mb1emUN1efYH/wBxR8G7A9fA+8bWvIpoOWe85XauZNOROG509dypUKgXAQoVDiRgePGOAOZQoACUQeja0qf5wOU6UtyGev8UZERzge5jtNbCkLOwOUs3c4oeZYz0+qHIx/8OtBCYhQrLIuB483+/eaHLkJA5+HWaOEyxpdl310M0D3pLbA9dJvrwGvR18M+8DRTWQsgnUdv/c3NaJVlHe5iVder443WOCNHfm60WNOWZZZtDNp6Z4zjvi5bx9Nd7C1Q5NGyxh8KxkCOFIj8POi28Dw/w0brtHsbmYafe+ZnIF8905nXoctlf/Gzpy13TMt+MzLgeT20gvUyGNuiIhz/jO7jAZd3xtLv1hhPq9n5vJ6yBra/oj47ZW2bpD+7BEQUnl3+UrsQCHoCfOjQQsSHIoXLYy++iztuuFK1my47BlpjuHSGfsjxmIEPZb1EiIooxz8uS0M3JdvAB7Bx8oCxOE8izygk9FgrWrQ4DpJBj6/iQ9IY3IWK8VxZ9o3iqLR8dL0OH9Ybv67fVlpSn877k5txCAErp6iJiYp0LhdEV6a2Ghobx3ylBfc0ZR1T6F6+ElhzFiqLtnu/UqD5y817MO24+lFx+w1XKuGny2WdWszrtrEvyhL4ueUfPz+cUEKLoNF9XJayypPWn58dT5+L8rRJ8lQMARGFFcNZahECIUlAW9z4UGKgcOF4t8SqVdQx10ijFZEL6nKsoR5PRiGp19ijKDyTwGVvKBRYDwUEXWp88PLPLjjt48L4ANXWHm2t4ZhHbZFiGygY1ExdL8t8lNROWoM8jZnzlocPw7I8ELWVyV+i0J/c9DVqiyEFNj8T2qLGcZDGRc6ZXk8A0XmNW6NrVsfriSJGq64+575lnxqFFz8TtEzv+vsQZs1ZAAo1zZ7WNrrkOWlETyQxlsd8s+YWn0lsbKNumzEffwA9/6/b1ZAKxnNyjHvg55A/kDytJeie1nisf0wYrYrG81o0Mo594e8QiM+Ov9so5QWGgIjCwHCVUoVApSBAawgfTLT40RJHQaUXhOYF0qLAhyqtRnz4cnwT47hgrk7n7sozvt2hJHeqBkjxx3GLdPWybApOWmW06DC65nQeb1s+oOvXqaksmrwettM4CcGYj+Uag1HoGuPLu6/d2OXNX1o+f3IzstaTGSiwddCCVs9Q1qLGKNyYVrtJjUvS6DLKu6VYpyVZ/3DQPwx0eUbXsI4zbmmBMwrRsrSRYljdH9FRasKKFo9kz8D7h8F9LUEV6eWf8ccE7yeWxWvgdXKf95rm66WIM47252fnjBsjBVQoARGFFYpbKhMCoUWgyHVlfzBxGRq9jhwfgLQY6gcqH2Z8QFIYcGwhBZgWgBRY+kGp3bjaCuILET4Uaf1heZwcoC2AWnToer2tG8c62N46Nau5LAbsq/uY5fOvrBYf92vjg10z8WS10um5JI1e90/HcasnMnBfCxDjefd9f3GjBVizdq9DH7N/9WdBx1XElp9RPXSBlky9jIy3uimo+KOCLLlvtCR7y+Mer0UyP8tGLuxf/SND18NhD/qz716Otrwy3r0t6kfL3oNqlrC+pkBYBd3bpI/9+dnxdv26LtkGDwFTdna2LXiaIy0RAmUnEBsb61Om7JyiyQc+ZQiyRDab/Va1Wq2wWCzIz89HVlYm0tPTcfzYMcBmRf/+/YOs1dIcISAEhIAQCBUC5lBpqLRTCAgBISAEhIAQEAJCIHAERBQGjq2ULASEgBAQAkJACAiBkCEgojBkukoaKgSEgBAQAkJACAiBwBEQURg4tlKyEBACQkAICAEhIARChoCIwpDpKmmoEBACQkAICAEhIAQCR0BEYeDYSslCQAgIASEgBISAEAgZAiIKQ6arpKFCQAgIASEgBISAEAgcgaBfvHrfvn346aefUFBQ4JFCREQELr74YjRs2NDjeYkUAkJACAgBISAEhIAQKJ1AUItCCsFff/0Vffv2RfXq1T1ezYkTJ/D111+jTp06oED0Zzh58iQee+wxPPjgg2jWrJlL0Tz3/PPP49FHH0W1atVczrkfTJ8+HZdeeik6d+7sfkod7969G48//jieeeYZZz2fffYZJk2a5JK+Xbt2eO2115z1sdx3333XJY23g4EDB+LJJ59ETEyMtyQSLwSEgBAQAkJACJzDBIJaFK5fvx7169f3KgjZbxSLTMO0nTp18ktXrlmzBqNHj3aW9f333zv33Xe++OILFUVx5k30uedxP6bgpCB0F4ZTpkzB1VdfrZJTOL744ovuWaHT8Pz8+fPxwAMPqDQUgNddd51qE6/n448/LpZXIoSAEBACQkAICAEhoAkErSg8deoU/vrrLwwdOlS31ev2wgsvxOeff44WLVqgatWqXtP5eoLibuPGjSirpbAky503i54WkxSGFHUMOTk5+OWXX5SoK63NtCYaLYoffPCBM4sWrIygpVCCEBACQkAICAEhIAS8EQhaUUjrVtu2bREVFaXazve90hpIixgDRVT79u1hNptVGqZlnj59+ni71nLFU5wOGzbMY166c41h/Pjx4J8xaDdwvXr18N///tfpHjamcd9funQp9u/fr0Su+znjsbf6mEZbGI3pZV8ICAEhIASEgBAQAt4IBKUo/Pvvv5W1rFWrVs52UxDScnfllVequNWrVyuRSCshA9Pu3LkTzNuoUSNnvjPdoeVx4cKFxcScHlNYUvkUqXv27FGu6DZt2qhy7rnnHpdxfUyjXdV0BTdo0EC5eo1jB1lH3bp1ER8fj8suuwwUmNdeey1mzpzptXqj9VAnYj3uolWfk23pBDh+lZ+FzMzM0hMDqr/4g2Lr1q1Yu3atT3l0IvZvjRo1lAX8kksuUUMkCgsLsXLlSmzfvl0l4w8li8WCyIgItGrdCnEx0Tq7bIWAEBACQkAIlJmAKTs721bmXAHOQFdwly5d1OQRXdUnn3yiBGFsbKyKOn36NL788ksljnSaw4cPq4kpvricdZ6SthR+9957LzZs2OAxmfvED2Miij2O4+PYvtdff11NNOF5Hec+4YOu5yZNmpyxhY+WSYZzyVKoPxNG/p72s3PyPEX7HKdFYcuWLUGhxpCbm6tEGq3WxvDjjz9ix44dysrsaZIUz1Mo0rLNHwyegk7DcxSJLIf3Bmw2DBw0CCaTCd9/9536MaRFYf/+/T0VJXFCQAgIASEgBEolEJSWwlJbXYEJymMppDCj+KO1zyj+9ESUO+64w2UWsfFyOJ6QQtI4HtB43mjtKymt0VJYkng1li37vhGgmNOCj33w7bffKmHIHyPHjx8HxVxJY1spJA8cOKAsiZw17y1QePKHAq3NCQkJqmz+8KEoDQ8Pg8Vi9ZZV4oWAEBACQkAIlJlAUIrCDh06qPGBgwcPVtYQXhXHENJl3LVrV3WR3GecDjabTeVh3jMN7hNGfJl9TLFG1zAFHcPbb7/tIgh1mygMx40bp9zAepKJPsctRSSXuaGL0rgUjrZacmkb9+CpHJ3GFze3Titb3whw/Gp+fr5yJdNKqY853jU9PR0Ubvyju1+HLVu24KuvvtKHzm1qaqpznzvMQ5ezti5yZj3/aKVcvny5SpucnIywsHBYLPmoV78+NmxYj9/WrEGPyy9zKUsOhIAQEAJCQAiUhUBQikKOCaQlhmOnWrdura6H7jmOK6TLmEFPNNEXy7QUVP4YT2icwEGrH8f5UcwZXbPGfbZBW+1o+Rk1ahRoDTS6nY2zjzl2kEKTrmkuG2N09er6WMYTTzyhLIosX6fV1kZ93dzqMYnGOOO++4QY4znZLzuByMhIZa3jZ47inUKdE5K06KNLmOKQn2H3QDcwRZ6noF3OPGcUkR07dlTuav4gYrkcU8qxhAy1aydh6LBhOH7sGGALnOVw198H8e83P8SAHp1xVd9L8Frq59i4bTfGjLwKny3/EW1bNVHxbBPPrV63VbWP/67o2h4bt/+F4ycznHF6JzY6Cv+66wZUrxqPKTNTnWlqVEvA8KG98M6HX+J0bnG3/9iRV6Fzu6Ixx2s2bMfMOQvQtcP5uDfF+4oF6acyXephO1gXy2N+YxsZP2lsCr79dQM+XfaDbrJzq9vevFE9Fcfr/nPPAZUnsWrRDwKdQbfRve36vGyFgBAQAmebQFCKQkKh+KFlpGnTpmp2MWcZc1KJnlhiBJeXl6eWkOnXr58x+oz2afX5xz/+gYMHDxYrx+ia1W5iLmD9wgsvONPOmzfPuU/Lo6fFq41pmJjlGl29Tz/9NG688UbVhpKsgSWdE0uhsxv8ulO7dm01uYmfD/4Y4Z+2DPKHAcVbSYEuZI4PpJu5d+/eCA93vRU5zpDlcGILAyeZ8O0+FKJ60oqeaGIpLEBYWBi6de1SUpVndG7pd7+p/G1bNVXb+rVrKFHIgy7tW2HewpU4cOS4EmQUZV3atVIiiwLovMb1lCi8pv+lqF+7pjOeeSn6jIFpGL5dXTSO1yiiFqz4sZhA02KL+ShGjYJUl+0uFlkPxS3LM9al47XAY36m00LYXfQxP8Uyha0xGNtkjOc+xad7MF6j+zk5FgJCQAhUFAHXJ1FF1epDPXxYUhD+8ccf6NatW4k5mIZpSxrHVWIBbicp4uj+W7BggXrY69Pu1kHGa7cuF84u78xeWhlZnxZ3FKRaDHJLaxStgcbxhLpNsj07BDIyMlTf033MvqPlOi4uTjXG14kvZWk5RSN/KFGE8g0/FKV0Ye/atQtLv/zCb599T22ilZBWwbatm0FbxXS6mOhI9L+sE3Jy85Cblw9a4jxZyXT6M91SeNJCV72a3RJnFInasqfr1+eYfsDlrgvb0/KnrX/Mp4O3eF4XBWH1agmIjorUyb1uacWc8+LDLue1UBQB6IJFDoSAEAgiAkErCsmILmNaUzh4n8tzeAoca8VB+/6accw69NhAzoD2FIyWQp6ndY/u3vIGWploZaTAHDFiBI4dO1ZsTUOepyjl+DWOKeMSNStWrFBVepuUYmwP0xitkMZzsl82AhRjnF3OvmCgVZBCnj9K6EbmfmmBs+ezs7OVK9ndSugtL8UnfyBs2rQJNWvWUNbDP3fuVMnr1rW7ML3lLW88xd78z79WLlxaB42Bbt2nXp1rjFKCiVY1T0GLMJ7T1jIKNmPQaYxCjeeNLmla/ShOtei7skcX/Ln3IHbu2Y/7n/6PsTi0aNIAD95xHWIc9VAwTn/8Hy5pKNaefHWOciFTbNLyRwFsdEOzfLqW+Xf34zNUfpZNK6i3YGyzMY2+dh3nbsXU8bIVAkJACFQ0gaAWhXyXMYUZx2rxPcieAtNcfPHFfn3vsRZpRnewp7p9jfPVgkgXtLtL2VgHxx4axx8az8l+xRHg227oKtbjOznpiUGvSUjRVprVWgs87QrWS9yUdBVGl/KaNb+hSlwc/tqzB/UbNEB8QvExbCWV5eu5Zd//psQW0+fk5uPpWfOcx4zT7lZjeVqsMY4CiGMKddryuI+ZlwLNKNIYp9263GedFIXugWMdtSDkOW9CjeeMYk27oSnYRl/XH3Sfa/GmxyVSQNJS6i24t1kshd5ISbwQEALBQiCoRSEhNWzYULlSgwWYtEMIkACXheEMYY4N5MQP7vMvMTERWVlZymJoJEVBp9cjpGWbP3ToAqbFkMKQf5yg4sniTMvk119/rSy9dE3HxcaqYRUcU0iXNduSn5cXkIkmdNfqQAH0xJgR6lBPPDGe1+ko1oziT48p1OfLujWKNZ13SO/u2LZrn4sQNE780ALM6A7WVkOjuNTpWK4xv66HW6Y5cPgohg/tqaJPnMpU7nJ3y6kxj6/iU+fRglMfy1YICAEhcDYIBL0oPBtQpE4hUBIBPRuYaaKjo2FcMFqLP+NMYl2WnlxCK6GxDJ5negpF/rnPUKZlkuk59lQvYVOlShU1AYtl7ft7n5qFrOvx55YTSzhpxH1CCGcL0wJ34qRdIBmtcd7q165hntdCz9197CkvBZOe4EE3LvM2qV8bfS6+ULmrdd0Ub3Rna+ul+5g+Y9l0i7/49sdKVGpBRiHH/PpYp/91w3bcfsOVarIMXcvnNbHPHicbzqr2FIxWQi2go6OjkJub55zBzXysk3yNM6k9lSdxQkAICIGKICCisCIoSx3nBAFaAPnmHR0o5Ljo9LJly9SsYcbTGnjDDa4zVRlP9zH/uBQNy6Aw1CElJUW9Ko/xfJ1jz5491fqdtCBmZWXixx9+VAtoB2Kdwss7twVFjXvgZAtOujhxMkNNMNHCzD0dj43j+LRlzn2yBeugUNPC0TimkAKU5ygIKdB4jtZHLRDd6zRaB/U5bSV89+NlLrOTje2gkKP1j/n1DGajQKz+dzw2bt+DDdt2K+HIcY3eRKGul67mWXPsM8jHjhym0nO2c48u7dRSN6yHwjq5paubW+eXrRAQAkKgIgmIKKxI2lJXSBOge9iTe1dfFNcfvO+++/Shc0tLotGa6DzhYUdbGvUpXR8FI8fOMuilaHSaNhe0sVsKA7hOoa5LbykCOV5v6bdrQHeqnvGrzxu32lJmXG9QWwqZjsJMzybm/oEjx1yWiaEAZB3zPl+lLG2cBML6jDN8dR3169RymViiRah9/F8Uhg/pqayOej1CtoMik/VyX8ezXYxneh0oAlkOrZvus5l1GuNWjz1kmdoiypnaFJbT3voQBw4fU/F0S5ckqo1lyr4QEAJCIJAERBQGkq6ULQQqMQG6TykKaS2rl1RDuUKv7neJy7I1FFq0tr3+zDhFQos0o4WOJxhvFI3u2Ohi1dY77huDtsYxP8WaLwJLu5g5QcXTOoXu8ayPcWwD8+qleYyTXYxtMorU+nVqKiHK85y4Q5FIN7K2XvrSXmPZsi8EhIAQCBQBc6AKlnKFgBCo3AQojGi1o6g6lHZCWb70Ite09jE0qFMLDWrXLBUE02u3sHtiuomNYxrpQtaB4uvRf7+jhJa70GQa3Q73SSF0EY988AWnu1qX5y2egpDntJjU6fWW7m26gXUgB779hRNzKPr08j0sg9c5aewtyvU+/pn/enTP63JkKwSEgBCoSAJiKaxI2lKXEKhkBDgOj5MluM6fdrfymCKMEz30hI5Pln3vcuVG97Gyupn+n713AZOqOtO2X5SzopxUBJMoHpJRQE0ENEKM8UCGGJGIcEUN+SExkZAYGZ3P6I8OHzISZsxgNIjJZHBCAhkIGUQNI1ExCI4KGiOgSeQgEUFUjkLLsenvepa+5ardVdXV1dVNVfe9rqt67732Ot57V++n3nettS1M4Jj5yFPBGifroruU/2fR0pRVTQtk63V4qkNBlrt43J/XFy9Po/Oy6MXBxV3SIpgpXlbMbILQLYJu5VR+ubZ9hnMsFpOiVeslquxMk1vitrIPAQhAoKEINKuoqKhqqMqoBwL1QSDfN4hU7K7+Dt36aE99lVlV9cFX1ccU+kQTLZ7t7z7Od+xifbWRciEAAQhAoHwJ4D4u32tHyyEAAQhAAAIQgEDRCCAKi4aSgiAAAQhAAAIQgED5EkAUlu+1o+UQgAAEIAABCECgaAQQhUVDSUEQgAAEIAABCECgfAkgCsv32tFyCEAAAhAnuBKuAAAgAElEQVSAAAQgUDQCiMKioaQgCEAAAhCAAAQgUL4EEIXle+1oOQQgAAEIQAACECgaAURh0VBSEAQgAAEIQAACEChfAojC8r12tBwCEIAABCAAAQgUjQCvuSsaSgqCQOMjMHv2rMbXKXoEAQhAoBETGDp0WMG9QxQWjI6MEGgaBOryD6ZpEKKXEIAABEqDQF1/yOM+Lo3rSCsgAAEIQAACEIDAISWAKDyk+KkcAhCAAAQgAAEIlAYBRGFpXAdaAQEIQAACEIAABA4pAUThIcVP5RCAAAQgAAEIQKA0CJTkRJONGzfas88+axUVFbWidMQRR9h5551nXbt2rVU+EkMAAhCAAAQgAIGmTqAkRaEE4bnnnmvdunWr1fXZsGFDEJNXXnllrfKRGAIQgAAEIAABCDR1AiUpCmUhrEkQTp8+3YYPHx6un+8rT22ti9lugGXLltnIkSOznU6LnzZtmvXo0cPGjRtn8+fPTztX04HydurUycaOHWsTJkyw7t27hyxz5861O+64Iy17r169bMqUKda+ffsQP3nyZFP+fMLAgQND+9q0aZNPctJAAAIQgAAEINDECJSkKMznGrggVNp4P5+8+aaRKBwzZkwquYSawuDBg1NxEmYKEluTJk0Kn9RJM5O4nDNnTo2CTIIwKQzHjx+fqmvt2rV29913x0WHfU+j8zNnzrSbbropxEugDhkyxHr37p1qQ7XMREAAAhCAAAQgAIEPCZSsKJT171AHWeEyWeKSFrx+/fplbeqSJUuCOKvJQicLoUSdwu7du+25554L+bIW/OEJtSVuz6xZH72BIrZaylJIgAAEIAABCEAAAtkIlKwoLNT6V0wxWRtLoQBv377dRo8ebcuXL0/jnUlYKkGyfM/02GOP2ZtvvmmnnnqqR2XcyooZWzKVKJM1M2NmIiEAAQhAAAIQgEBEoGRFYdTGQ7ZbiKXwhBNOCOP+WrVqFVzG7sJVJ+RqPvHEE4NLWOJt3bp1wbXrYxflClZ+uZvjsYPKe/zxx1u7du2sf//+YXa1JtPcd999WdnE1kNPlE2E+nm2EIAABCAAAQg0XQKIwhzX3kWUWwAl8Fy0acyeXMI+pjBbMS74/LyEXxw05m/FihWpcnQ8Y8aMOEnYzzRm8Vvf+la1dFgKqyEhooEIPP3006Gmz33uc1lrnDdvnp1yyil2xhln2J49e+yRRx6xvn372sc//vGseTgBAQhAAAINQwBRmIWzxJlP0tAEkKlTp6ZmBmu2sCZ03HXXXdXct8niZG1UOQo1CUil0XjCXLOYXajWlDa2FCZnLYfG8AcCRSawbds2O+644+znP/+5vf/++6nSO3fubF/5ylesdevWqTjt7N271/bv329HH310Wnx9Hbzxxhv2/PPP25e//OW0tkio/u1vfwvVtmjRwr70pS8Fkar0v/vd70Ibk2266KKLgrCN4yVy//u//9s2b94coj/xiU/YoEGD4iSp/R07dthvfvObFKezzjrLcolpZYwFdaqgxI6E+Z/+9KcQ27ZtW7vqqqtSfGvTvkSxHEIAAk2EAKIwy4XWbN5Ro0aZ/lmffPLJaak6duxo+qcuV25NS73UZClMK/jDWcy33nqr7dy5026++eaUEHVrZaZJLbHwTJanfBMnTkxGcwyBohKQgNq3b1/4vmiNUYkT/XiSRTBb0HdIIkxDLTwkxZLik+LG09Zm62JJAjUOr7zyinXo0CEl3pTu97//fRBTsl7qf0AclP7ll1+u9j9BaRYsWGBaQP/qq68O/x8k+lReUuxJnElsnnbaaeGci89svGImsrJmC2rba6+9Zl//+teDEFTdqscFeb7ty1Y+8RCAQOMngCjMcI1l0du0aZM99NBDwZohUSUhGAcfO7h161a74oor7Itf/KKNGDEiThL2Y8GWj6VQ7l+VrbJuv/32MLZQBWkCSzw+Ma4oKTzjc9qXpZAAgfokoPGxsvopSPS8/fbbYfysjiVqJE5kgVOQNTy2Jv7sZz8L8foBduaZZ9oxxxxjAwYMCNY8zxsSFPhHFjYFWfck6OKQFK2q//XXXw9tTlow1ZYXXnjBLrzwwjRLo8qTsHvnnXdCu3WsvBJ9mjAmHrGVdM2aNcFCqLoUJD71FqbVq1dXE9EqV2Lu85//fBh/HDJk+aP8Yuft1vhl9UUWWbUt3/ZlKZ5oCECgCRBAFGa4yPGMXs0EVoitGXEWLSWjf9oKssrVJcjlG7t677zzThs2bJjptX+xuEzWkesclsIkLY6LTUBiSRYqWfQUJD7kQtWPKoU+ffqErf/R+NhvfvObadZEWbXyDUqr+mLXaK687sKVJa2moL7I4pkpSFBq4fhM4x9l2ZeV8Nhjj01lleVP7ZQoi0Xhli1b0sSbMshamUlAqq7rrrsuCEuteRoHiU25q1Wv+igrot4GpT5IGL700kspS2xt2hfXwT4EINC0CJSkKNQ/Ob2yrqa3miQvlfIob7GCrHYPPPBAGE9Y0zqDXqf+scut7CFeK9DjfLyfW/hkOZFl0sWdXNcuBrXVP3Sl1ScWrF4eWwgcSgISS26dUjskRmSBkxjURBLNmk8GCRqNQXRrmfZzuUaT+evjWG3SuqISdknhJ6Elq5ushJmChF4yqN9yjyeD+poMEpD631GX4FbPX/ziF6GYeCxnbdpXlzaQFwIQKG8CJSkKzzvvvPCLt7avrJMgVN5ihNiFnK8gVL3uVvZX0WVriy9Jo/M+s1hWvWuuuSZYWeKJLUqjt6UoT8+ePcMr9bREzeOPPx6KzyQ8k/UqTWyFTJ7nGAKFEmjZsmUYS6gJDuvXrw+WwrPPPjs1keSoo46qVrSsiRJMEpMSYwr67uQTNEYvOU4vn3y50kj0aQygrJ1yXSeDhK/aG1sCk2ka+ljWR41f9CALqoSlViXQOR3LkqgxhQQIQAAC+RAoSVGo8TVah+9QhlwWOQk+ibRkyBafTKfj+FV5fl75My1H4+eVJ1M+P88WAoeCgCaWaOybgoShfrhosoZElO7pTKJQYlDDIiRcZCVTUJzEWUMHuZWffPLJIGwziU2JVoktidbYDRy3M5OlTxZ+H2cZp5WrOGktzGTJi/PUtC9uclXrR7G3UZZatVtjGGvTvprq4jwEINB4CRzWeLtGzyAAgYYmoOVeJBKvvfbaYHWTxTBTkADUuEKJIwnDbOky5S1mnMTs//7v/4bJYpkEoeqSVVPizl3dmeqXq1ieDaX1kGnsoM5JoL377rtpAlgccolOL7PQbW3aV2gd5IMABMqfAKKw/K8hPYBAyRFYunSpya2ssXkSgHJzahsHWeAkpCS4NCnFJ4JIMGlG8r333msaHxeveaj8EpGavVwMq6LGP2YaQxi3UzOrZfVMTjZTezXMQ8JSZWj4ispTcMudj5PUDGi921x9dje5z4RWfolJzRZWiNOGiCx/VJbKVHqx1cxjlal4BV0DsVN9NbUvSxVEQwACTYxASbqPm9g1oLsQaFQEJNrktsw0lk3iSlYrCRefOSvBKGGkWfyf/exni74kTU1wtXC1BGgc4sWkZcWT4HO3bJzO93VOS+5oXKKXlWmBa6WXgLv00kvDMj1yt4uJL5jt5RWy1QxkCURf4sfLdTGeb/sKqZs8EIBA4yDQrKKioqpxdIVeNFUCvhRKTf2v2L23piQlfb6q6oOv6sGDB62ysjIsnbJr187ggt2it2hUHcw4SaIunZo9e5YNHTqsxiIk6vS2EC30/pe//CW1YLIyymrmb+/Qtbr88svtiSeeCO5YnzHrFSjtH/7wh2rrFErQuLjxtGwhAAEIQCCdQL7/s9NzfXSEKPyIBXtlSgBRuM0OtSgs01uHZkMAAhBoVATqKgoZU9iobgc6AwEIQAACEIAABAojgCgsjBu5IAABCEAAAhCAQKMigChsVJeTzkAAAhCAAAQgAIHCCCAKC+NGLghAAAIQgAAEINCoCLAkTaO6nHQGAhCAAATKkYCWE9K6lpqRr9n8Tz31VFhUXWtPasFzn6nvb+DxPmqind4Ctnr1ao9K22ZbGiktEQcQ+JAAopBbAQIQaBIEfNkcvXUlXnNQD2OtVajga/tp0W2l/93vfpfxVXWZHrS+9uJmLQ9kZp/4xCdMawdmCvEyPTofr4uYKb3iYtGQLY3i1Y5HHnnE+vbtGxYP97Q1tS8WGzEHz6/1J7WuooKEyFVXXVVtmaBkHUqbqSwvs5hbr1tvnnEBlW/5MTPlWblypQ0cODDf7GnpxFFCTut0xvdZWqLEge4HLeTuC5tr+SVxU9B77hctWhT21S//xPeDro3fk9p3Eak0BAjUhgCisDa0SAsBCJQlARc0nTt3Tmu/HuB6F7GLN6XTe5sleCQMR40aVS29HvhajzEZtPi2FrnWYtwu+lRe8vV5EiASm6eddlo45+LTH+TJcr0svZ3E35CSTOPHXpYfx9tc7VM+f92f+i0uzkECRcd6t/LXv/71IAQlNtSHWPh43RItYuDB2683rjhnP1cqW389od78ojfBHHnkkQ3aNN1TEoTxWpx604/YnXrqqeFtOrIcJtPEjdT7u/Xx4Ps13TOeni0ERABRyH0AAQg0agJuLZElRQ/fOCQtSrIyvf766+FhHD+glUcP6BdeeMEuvPDCahYgCSIJiwEDBoTilVeiT292kQiMLUZr1qwJr5/zdylLhLn7L9kelSsx9/nPf96WLVsWN73avoTbs88+a5dddpktXLgw7XxN7dOr/CRoJYoUJD5kqVKf9Xo/cVN/nIneVa12qc9qv9JJtGiRcZWh1+/JYuoiXCJbi5JnEslpDW3gAxeyEmAK/jYY7UsEZ7KGFruJYqe6zjvvvFTRYi5rrBaE1ysgPSSFuMdri6UwpsF+oQQQhYWSIx8EIFAWBNw6JdFUU9ADet++fRmTSRi1b98+zSXrCXfu3JkmqhQvy58e9nv37k0ThVu2bAmv8nOBpbSyVmYSkBJc1113XRCWSVEosemvClQf3a2oPiRDTe3Te5f/+te/pkSe+iqhpDaq/dr3dzOrbMU3a9bMVK6CBN9JJ50U2EiES1TKWuhCVWkkJCUcJYaVX+2M33QTCzC37IbCM7jXYzHnruzku6k9jQS3+Kgtbj1z1774yhqs+hT69OmTEuF+fbK1M1u8t/nVV1+1JUuWhEOJ49iq6mm0FWtZgcXZxbSfVztvuOEGP2QLgXongCisd8RUAAEIlAMBiSw9xGXpkliIgwSALIiyEmYKEnrJoHc8+7iw+JzepZwMEpAShfUVamqf+isrp4+hdKElYSRxlRTKbslSe8VN5yUaxUlj42TZVBADlaH04qpylUbHsQtdcbKgfvrTnw4CLXZV65zEo4Jc8S7u3DLmeU8//fSQRn9cECq9xLKOY/f4qlWrQpxf5127dlmPHj2CKFZfXGCqb5naqboyxav9CrKSrl+/Pgg6b4v6l8kSrPtKolF1xm53iWv9WEgGL09CXWNhJSrFFvdxkhTHhRBAFBZCjTwQgECjIuDCQ6LFXcBxB/XglcDTw7dUglzSsYioS7vcoqfyJOJ0LCEm611NwS2JyieO4uSiqqa8LpCVV4JK+d2VqjgFbeVa1TWQSNMsW03McYHleXVOQdZLudHdchoizezAgQMpy6bG6SlIePkko3j2rtzIqkOWQ4VkO72uZHxI/OFEHBfGEp6yVmYS5hs3bgw/NF566SXPmtpKEHr5qUiz8INF1k213Wcry9LpIln7Pj5VaQgQqA0B1imsDS3SQgACjY6ABNAvfvGLMGZOoige/6fOSgDIiieXaPKcw9BDOBkkTnysWnwuk/Unk2CI89R1P1f7JOokuOIxgxJUmhiieImuli1bpjVBeeTy9KB+StAlg8YqKq+4xeJRxxp/+O6779q9994b3KYutCQqZWFMBtX33nvvBUtkpv54ek0Ukbh3Qad4CTNZDWVNU33uLpZb+YorrggzfL/1rW8FISgxKJet0mdrZ7Z4b4Pqz0cYn3vuudWs0l6GLK+yWjoXj8+0dYto8pwPK0jGcwyBbAQQhdnIEA8BCDR6ArFbUQ/WTEGTKSR6fGJIpjQSMXKb+ixWpZHQk7Byi5fnk6CRGIpFlCxCuUSn5y10m6t9Rx11VM5iJW4k1CTwPLhFUG1W/zTWUiJY+xJv4qA0EtMubCQwNZnFeWj7zW9+0yTGFDRxRUGsfaxiiPjwTyy0conofv36hRxenpchoSuxJxGoHwL6KKguF666DknBma2d2eK9vrpuVb4Yyu2sIHEo663u2TgoXmMRJXb10bJBLn51jLUwpsV+TQQQhTUR4jwEINBoCchtl2kMYdxhiaFMLlGJiqlTp4aHtMqQ4HE3oB7mcoP6ciB6MOvBrQe4hJSCRJKCHvISUT6RI04bEmT542Ign4d+rvbJ6qU2qb1qt4L6Jtem2pTpvPopISjhoqB+ymWrcM4554QZs+pv7969g8iTO1YC0V3zqueJJ54I6b18Hag8WSxVlrdFWx37BBVt1T4XRzr/xz/+MZSlPxKxboV0Nkqvj4JYeLt1LIEp6614SsDGVsps7cwWHyoo0h9noftEbYstrV6FxN+vfvWr0F8JXn1k6ZQr2Y9lLSRAIF8CjCnMlxTpIACBRklAY8pkUYmDHqxuOZT1SIJP4iVb0DkJEVlyvCwf45XMo4f9pZdeGiYqyKojwam8Pukhmb4YxzW1z/sqN7oHtd/bpPPi4Od99q6nlRVO4krnXZD4OQktjdeLxYkYyDrnrGQF9PGL2dqiOhR860u1xHm9TpWv8nQ9JE7FVxNDJKIU1H4vx+tTvLchLidTO3O13/MWYysXuMS0rJ7+A0MTU+T+1uQUWVlz3ZfFaANlNC0CzSoqKqqaVpfpbWMjoIdCPqFi9958kpVsmqqqD76qBw8etMrKymDV2LVrZ3hYb9FbNKoOpiwxxerE7NmzbOjQYcUqjnIaOQFZ0CTE4vGGSQHZyBEU1D1ZNH3SSLKAmGmmHxoSiP6mmWReHTfEj45M9RJ3aAjU9X82lsJDc92oFQIQgECjIyALmsYJEmpHILaiJnPWxFSWztjamczPMQRqQ4AxhbWhRVoIQAACEIAABCDQSAkgChvphaVbEIAABCAAAQhAoDYEStp9rNlvmnWmpR5yBQ0C1+KmWiCUAAEIQAACEIAABCBQewIlLQolCLW4Z7du3XL2bMOGDUE8XnnllTnT1fbk5MmTw5IMgwcPtrVr14Z3ZEqoJkOvXr1sypQpYYmG3bt327hx40K7lS8OKk9hzJgxcXQoe+zYsTZhwgTr3r17ODd37ly744470tLF9eiEyps2bVpammwHAwcODO1q06ZNtiTEQwACEIAABCDQhAmUtCiUhbAmQahrpzQ1WRPreo0l1pKLoWYqc+XKlTZ//vzwiUXdD37wA3vsscfC2l+xkBs/frxJPEoQJoWhn1M9EqV33313tSo9jc5r6YWbbroppJEwHTJkSFgnbNmyZTZnzpxqeYmAAAQgAAEIQAACTqCkRaE3sqG3SQucxJ2EnBZizRUkzCTsJN4WLlxot956a8p6+KMf/SgsdKu1vJYsWVLNWijRKVGnIGvjc889F0Rdrvp0Tm2LxeesWbNSWSROPchSSIAABCAAAQhAAALZCCAKM5CRe/f666/P6gbOkCUIuZ/+9KfB4ifxqBeua72ua6+9NpTTpUuX4BqW+NNipHIPJ93LXq4sikrjL233+ORW7Uy6olWuQrayk2VwDAEIQAACEIAABEQAUZjlPnjrrbfCgqAa06iQtB4ms40cOdImTZqUivaxgXrPplzDEnm33HJLEIixYJNrV3kV5ArW66bk6vUxil7g8ccfH16/1L9//zChRuMn77vvPj9dbRtbD/2k6kmKSD/HFgIQgAAEIACBpk0AUZjl+ut9k5pUInElV67G6Lmg8vF9d911V3APJ4vwySaK16uYNLlD1kO9s/Mb3/hG2oQSxa9YsSKITqXX8YwZM5JFhjIkOmPh6S+SjxNjKYxpsA8BCEAAAhCAQL4EEIUZSG3fvj0IQY3Dk6Vw3bp1pgkkGguoF8RL3CmsWrUqiDmfNexiUK8cGj58uP3whz8ME07iKrRsjsYdamzh1KlTU7ONPY2XEY8H9HPaxta+XGljS2Fy1nJcHvsQgAAEIAABCEBABBCFGe6Dp556KiUGdVoWQlkHJQJHjBhhW7duDbk05k+WPb230scgauygz1K+5pprMpT+QZSE5+jRo8NkktidLKuiJqjs3LnTbr755pRo9PT9+vWrVmauSTDKN3HixGp5iIAABCAAAQhAAAIxgZJ+o4kWpdYahDUFpVHaYgVZ4C688MK04iT8JALbt2+fFq93Vkos7t27N7h2JRo1dlBiTEHb73znO0FUeka5eB988MHgJo4Foc7rnIvP22+/PeR3QehLzHg5vpX1sGfPnhk/GoOo8YwECEAAAhCAAAQgkItASVoKp0+fnmrzk08+mdqvacfzyXVbl3D11VenZZeVUBNC5CZOBk0okViUdVECT6JR4i0+vuSSS0xjFJVWZb3yyiup9QTj8uTyjV29d955pw0bNiy1tqGskpkClsJMVIiDAAQgAAEIQKA2BEpSFNZV1NUGQD5pZSWUIPMZxck8cunec889wbooUdijR4/gQtbYQ+XRVmsQanyilq2Rezh+s4gsk5s2bUqthSjh6GJQW7mSZQ2MxxMm28AxBCAAAQhAAAIQqAuBkhSFdelQfeT1Wcdy7foEDgk0dyX7jOF4eRm1I15IOj72SSSadOKTTTSrWG5ijUPcvHlzKt77o/OqX25iiU4tUfP444+H016ep820VZrYCpkpDXEQgAAEIAABCDRdAs0qKiqqmm736XljINC2bdu8ulGxe29e6Uo1UVXVB1/VgwcPWmVlpe3bt8927dpp27Ztsy2bN5tVHbQBAwYUtfmzZ8+yoUOHFbVMCoMABCAAgfohUNf/2SU90aR+kFEqBCAAAQhAAAIQgECSAKIwSYRjCEAAAhCAAAQg0AQJIAqb4EWnyxCAAAQgAAEIQCBJAFGYJMIxBCAAAQhAAAIQaIIEEIVN8KLTZQhAAAIQgAAEIJAkgChMEuEYAhCAAAQgAAEINEECiMImeNHpMgQgAAEIQAACEEgSQBQmiXAMAQhAAAIQgAAEmiABRGETvOh0GQIQgAAEIAABCCQJIAqTRDiGAAQgAAEIQAACTZAAorAJXnS6DAEIQAACEIAABJIEEIVJIhxDAAIQgAAEIACBJkgAUdgELzpdhgAEIAABCEAAAkkCiMIkEY4hAAEIQAACEIBAEySAKGyCF50uQwACEIAABCAAgSQBRGGSCMcQgAAEIAABCECgCRJAFDbBi06XIQABCEAAAhCAQJIAojBJhGMIQAACEIAABCDQBAkgCpvgRafLEIAABCAAAQhAIEkAUZgkwjEEIAABCEAAAhBoggQQhU3wotNlCEAAAhCAAAQgkCSAKEwS4RgCEIAABCAAAQg0QQKIwiZ40ekyBCAAAQhAAAIQSBIoO1H49ttv24wZM5L94BgCEIAABCAAAQhAoA4EykoU7tq1y55++mmrrKysQ5fJCgEIQAACEIAABCCQJFA2ovDAgQP21FNPWc+ePZN9qNfjyZMn29y5c0Md27dvt1tuucW0VZzHZ2pAnG/37t0h37JlyzIlDXFr1661CRMmmNLmE+K2ZEqv+nPVlykPcRCAAAQgAAEINF0CZSMKn3nmGevcubN96lOfarCrJeG1atUqO/PMM6vV+cUvftGee+45k/hKBgk8CbJM+TxtbUWg5/Nt+/btbciQITZx4sQgUiVWJZj9M23aNBs5cmTqWPFKk6/o9HrYQgACEIAABCDQNAiUhSh8+eWXbc+ePda3b98GvSqyTJ566qnWvXv3avW2adPGxo0bZ5s2bapmkZs3b5717t07Yz4VJLF5++2323HHHVet3GSERKcLPd+6hVJ1dOnSJQjXSZMm2YoVK1IfCUIJwzhOadRuAgQgAAEIQAACEEgSaJ6MKLXjN954w1avXm2XXXaZHXZYw2lYCbfHH3/cRowYYddcc40tX748hWb+/Pmpfe3oePz48TZ48GBzK6FcwZmCzo8aNcquv/76VHodb9y4MSSfNWtW2Pbq1cumTJkS9iXuJAAVXBCGAzMbM2ZM2PVyvRxFKp+HgQMHBhGLKHQibCEAAQhAAAIQiAmUtCiUMJOL9pJLLrFWrVrF7bbp06enjps1a2Znn3229ejRIxVX150HH3zQduzYESyFPttZwuvuu++2QYMG2cKFC6uJLLlmf/rTn9qWLVsyVr9kyZIg1FxAKpGskAsWLAjWxjlz5oQy33rrrVBPxkI+jJQFUaIvFo8nn3yySVTKtazz/fr1C2JSrmyVTYAABCAAAQhAAALZCJSsKNy7d2+YWNKnTx/r0KFDWvuHDx+eOq6qqrJFixbZvn37UnF13ZGI0kfiKg4Se+3atbO2bdvG0an9xx57zHbu3GlnnXVWKi7ekYiLrX7xueR+165dqwnhOI0shLJiakyhhzVr1lj//v39sJqlMHWCHQhAAAIQgAAEIJAg0HD+2ETFNR0+//zzdtJJJ9mJJ56YM+nSpUtNM5OzCbGcmbOc1OSSf/7nfw4CME7y5ptvhjF8rVu3jqPDvqyE69atC2MFJRzj8MADDwQXc76CMM5bm31ZChcvXhxc2cqn+jSmUFsCBCAAAQhAAAIQyEWgZC2FLVq0COP44rF86khsJdS5zZs326WXXlrU8YZXX311mAwSg5PokytbM34zBY3Vk/Uunt0r9/fo0aPD+EFNSMkVXHAWOuZPbuj7778/jDlUO4cNGxZmH7t7WZNMCBCAAAQgAAEIQCAbgZK1FJ533nlBAEoE+ifuhKx5GuN30UUXmQRkfYeVK1eGKjKNW5SrObk0jVzNt912m9155512zjnnZGyeJo0onwtOjQEsNEiAakKMBC9tE64AACAASURBVKFmRR9xxBHBQqj6JRCTE1QKrYd8EIAABCAAAQg0TgIlKwpz4V6/fr1pmRoJwkyu3Fx5CzknwXXPPfcEK2EmS56sfEk3d6dOnYLlLtNyNt4GuZuVTxNLNBZRy9/UJmzdujXk27ZtW7BI3njjjZZcdsYnsqguhGFt6JIWAhCAAAQg0LQIlKz7ONtleOedd+zZZ5+1iy++uNqYv2x56hIvK54Eoax9vixMsjwXd8n4XMcqVy5lTaTRjGXNsPaJLbIyytLnAlRrDsZBs5dlnfR4jWH8+c9/nkqvtL5UjedLHns8WwhAAAIQgAAEICACZScK//CHP4QZth07dmyQK+hjGrWuoAdZ9GQdlKBT0Lg9zQTOFiTuNBbRRZyn09qBGzZsCJNXtMahLzOj8/HkkHiCilv7fHkbCVXl87Z42Zm2qh9xmIkMcRCAAAQgAAEINKuoqKgqFwy//OUvw9p7mpVMgIATyLZEkJ/3bcXuvb5bllstv6Rw8OBBq6ysDMsw7dq10zR8YMvmzWZVB23AgAFF7dvs2bNs6NBhRS2TwiAAAQhAoH4I1PV/dlmNKZQLF0FYPzcSpUIAAhCAAAQg0LQJlJUo/Lu/+7umfbXoPQQgAAEIQAACEKgnAmUlCuuJAcVCAAIQgAAEIACBJk8AUdjkbwEAQAACEIAABCAAATNEIXcBBCAAAQhAAAIQgACikHsAAhCAAAQgAAEIQABLIfcABCAAAQhAAAIQgIAhCrkJIAABCEAAAhCAAAQQhdwDEIAABCAAAQhAAAIiwEQT7gMIQAACEIAABCAAAUQh9wAEIAABCEAAAhCAAJZC7gEIQAACEIAABCAAAdzH3AMQgAAEIAABCEAAAiLAmELuAwhAAAIQgAAEIAABRCH3AAQgAAEIQAACEIAAlkLuAQhAAAIQgAAEIAAB3MfcAxCAAAQgAAEIQAACIsCYQu4DCEAAAhCAAAQgAAFEIfcABCAAAQhAAAIQgACWQu4BCEAAAhCAAAQgAAHcx9wDEIAABCAAAQhAAAIiwJhC7gMIQAACEIAABCAAAUQh9wAEIAABCEAAAhCAgFnzUoewatUqW716tW3fvt3279+fam6LFi2sffv2dsopp9ipp56aimcHAhCAAAQgAAEIQKD2BEpWFO7evdsWL15sVVVV1rNnT+vUqZO1adPGpk+fbsOHDzed37Jli73yyiv2+uuvW//+/cP52iMgBwQgAAEIQAACEIBAyY4plCA85phjbMCAAXbCCSdUE3wSiIrXeaVT+mKGyZMnBzEqQeqfGTNm2C233JI6Vvw111wTrJhet8Sq0ixbtixEaev5k1ulU/pcQRZS1eF51a44rF271r7zne+ktUF15lN2XA77EIAABCAAAQg0bQIlaSmUy1gWwrPPPjuvq6N0CxYsMOUrpit5/PjxNnjw4LQ2SKBNmjQpxEmwTZw4Me188qB37962YsWKZHTa8dy5c+2OO+5Ii/ODXr162ZQpU4Kr3OO0lfAbOXJkKkqW0h/84Ae2fPlymz9/foj3rdKNGTMmlZYdCEAAAhCAAAQgkCRQkqJQYwhlGatNOOOMM4L4KqYolFBzsebi7MEHH7Rp06almqZ4BVn8xo0blybIunbtalOnTrXu3bun0mfakfBMik9ZAGfOnGk33XRTNSupynCxqXR333233XXXXUE4SrQOGTLElixZEoSgxKP2CRCAAAQgAAEIQCAXgZIUhbLAaQxhbYLSK18xQyZLoSxubnWLLYVyZ8uCeOutt9ro0aPtxhtvDMKtmO3JVJbGVcp1LkvhwIEDbefOnSYxKpFMgAAEIAABCEAAAvkSKElRqFnGv/nNb7L2QZNNGiLElsJs9bml0M/LhS0XrkLSeuhp4q2Ep8ZGxq7g+PysWbPiwyD8ZJFcuXJlyCOLqgShWwolVCVK//znP9uFF14Y8m7atClMyJEb2tOlFcoBBCAAAQhAAAJNnkBJikJdFc0wrm0opliMLYK1aYe7aiXy9JH10McgypU7Z86c4GaWZTEOyXGHtXUfqyzlGTVqlF1//fV25pln2m233WYjRowI1sM333zT2rVrZ61atYqrZR8CEIAABCAAAQgEAiUrCg/19dEs32OPPTY1ceOGG24I6yVqXcR77703WOxkJWzbtm1qPKBEmaxystx99atftUWLFgULncSqxvl5eOGFF+yBBx7IOIHE09S0dYugrJISn7JQjh07Nm0M4/333x+KkVC9+eabw1jIpBitqR7OQwACEIAABCDQNAggCnNcZwk+t/T5+MGrrrrKrrvuupBLs4bjMG/ePLvsssvs0UcftdatWweRJuugQo8ePYLLV/ty+cpl/NRTT+V0HStt0n2sOJ/AoiVy4jBhwgRTG3zMo58r1Orp+dlCAAIQgAAEIND4CZSkKNTbSjQerzZWLaVXvmKGzZs3hzUCZY3TDF+F559/PljdNKlDlsJ33nknxKt+WRYl+CQKFRQnd/G5556b1he5cGU5dFdy0nWsvDW5j1W21iL0ZWdChR/+iWdHK8pFZE2zoOMy2IcABCAAAQhAoGkRKMnFq/X6Os2qrU1QeuUrZujcubPJGifR1rdv31C0tjqWBfG0004LcRJwWjrmS1/6UtqYPU0G0Vg+n/ARt02WQwWlKST4bGe1RZ+lS5cGl7YEocdpq5nJZ511lnXs2LGQasgDAQhAAAIQgEATIVCSolDj9vT6utoEpVe+Yge5f/XWFI3ZU3ALnax0ci8rXp/kJI49e/YES6AsgpnEqkSdLIiyFqrMugS1sU+fPqE8rV8Yh61bt1ZrW3yefQhAAAIQgAAEICACJek+1gLUep/xSy+9lNdbTZSuWbNmRXubiUSaJozI6qZJHHpbioSXXLV/+tOf0iZzXHLJJcGdrKVlJPRc4GlMoc861qQVd+l6OsFPLlrts4c3btwY7s44bfJ2jd+CojbKKqig+uNFtBWXq5xkuRxDAAIQgAAEINA0CTSrqKioKsWuS9zI9anX3WkhZi1OHY8x1Hm5jGUhlCDUjN/4fCn2iTbVDwFZbPMJFbv35pOsZNPou6Bw8OBBq6ystH379tmuXTtt27ZttmXzZrOqg8GqXcwOzJ49y4YOHVbMIikLAhCAAATqiUBd/2eXpKVQrCTwLr300uCalRVMs3+1qLUHTSqRW1Yu42K+2s7LZwsBCEAAAhCAAASaEoGSFYV+EST4EH1Ogy0EIAABCEAAAhCoHwIlOdGkfrpKqRCAAAQgAAEIQAAC2QggCrORIR4CEIAABCAAAQg0IQKIwiZ0sekqBCAAAQhAAAIQyEYAUZiNDPEQgAAEIAABCECgCRFAFDahi01XIQABCEAAAhCAQDYCiMJsZIiHAAQgAAEIQAACTYgAorAJXWy6CgEIQAACEIAABLIRQBRmI0M8BCAAAQhAAAIQaEIESn7x6iZ0LegqBEqSgF6bRIAABCAAgcZPAFHY+K8xPYRAwQR473HB6MgIAQhAoOwI4D4uu0tGgyEAAQhAAAIQgEDxCSAKi8+UEiEAAQhAAAIQgEDZEUAUlt0lo8EQgAAEIAABCECg+AQQhcVnSokQgAAEIAABCECg7AggCsvuktFgCEAAAhCAAAQgUHwCiMLiM6VECEAAAhCAAAQgUHYEEIVld8loMAQgAAEIQAACECg+AURh8ZlSIgQgAAEIQAACECg7AojCsrtkNBgCEIAABCAAAQgUnwCisPhMKRECEIAABCAAAQiUHQFEYdldMhoMAQhAAAIQgAAEik8AUVh8ppQIAQhAAAIQgAAEyo4AorDsLhkNhgAEIACBciCwbcdOGzNhqi1b/te05u7es9fu/MmMcE5pCBAoFQLNS6UhcTs2btxozz77rFVUVMTRNe4fccQRdt5551nXrl1rTFtTgt27d9uPfvQju/rqq6179+6p5Nu3b7eJEyfarbfeau3bt0/F+87atWtt5syZdtNNN1mbNm082pTvtttus5tvvjmtPCXIdU7ns5WZKpwdCNQTAT3M7pv+UN6lf2/4Fda71yfzTl+MhGve2Gj/+rPZ9sULetsVl5xvU371sK34y1r77vArbO7vn7GenzwxxKsunXv+T39OVfv5vmfair++blu2v5eK8522rVvZP35rqHU8up2Nv+9XqTSd2h9lV1/+BfuP2f9j7+/Z68lT2yQDZ9j3rL+z0ddenkqX3JE4iOvRedWl8nQN4jYq/o7vXWsdjm4Xinno8WfsvxcsCWmdv3Pp+anu1epV+scWLQv9O/njH/2/zBavSrwfyf5J4Nz98zm2dft7aW1K9q+QY+/XqSeeYDd/c4i1ad0qr2I831cG9Etd+2TGbH3NFq/8tWWw+m8bw3XTvbJ1x06bu2BJtXvm+3fen2parvamEhVxJ9lXv5YbNr1b7d6Iq9W9dd/0efa94YNs6/adWf9H6F5RiP+H6FrqXonv57hs5TnlE12rfRfiNMn95D2ZPM9x/gRKUhRKEJ577rnWrVu3/HtiZhs2bAhi8sorr6xVvvpKPHfuXLvjjjvSil+8eHHqWOJ16tSptmXLFmvXrp0df/zxQQCOGjXKJIxvuOEG+8Mf/mDLly8PeWbNmhUEr/LEQjVVIDsQKDIBCYzpd9+SVqo/cHM9qP3hkhQKEmWr123IKB6Sgi2t0uggKYgee/qFcLbnJ08K227HdQqiUAd9zvykzZj3pG14e0sQRhJlfXp9Mjyk/OEjUaiHcbfjOqfilVcP8jgojcKi5z/4Pmo/fhg5lziPiwjFSYzGgtTTJcWiCwOVF9fl8c7Q84v1ir+uCwJSD1MP4iLRqv7mCt5G9eVQBOeW5BDfD6vWvWnfHntPWvOcR1qkmUmwSPAqaKv7Iha+yfQ6ri8G+v6Ia/hxctpJNqD/OaH6bN8Pb1u2837t4x8Enifm5XGZtsnvT5xm2pwFJtYK//feX6ZOxaz9eumk7jF9p5L/I1IZP2SrH1jfGPr3NvPhhWk/0uJ0yf3JY0dZLg764acfbX5tvf9xW5NlclwzgZIUhbIQ1lYQqqvKU1vrYiZEy5YtswcffDCckkD7t3/7N5s+fbrNnz8/lTzenzZtmvXo0cPGjRuXSiMBp/gVK1aEPLmsgfPmzQv5VOb48ePtoYceClbKiy66yK677rqUpfC73/2u/eQnP0m1gR0INDQBFyCqVxa4bJabPXv3BWtAlZnd+q//kdM6EosBt87pH30mS5c/FL3fSqOHg6xh/nDwc21atwwPYbVZ7ZElzi1rnqaYWwlPtb9j+3TrnepIPoj9war0X/zcB0LB2yKLnz6eL1e8ixlPI6uT6pIlU1wUYitNLGI9T6atRMzyv6wN/YkfvJnS1iVO7Vdf4wd5bDGN7w3V49zUxwv69KpWta71zIefCvHXDLooWOZ0XBsroxdaLAYShvqoX3IlJy1kbimM7/2G+v54X7UVW/1o8R97ipMFWFZD/8Hlwivf+yguX5ZSXR/9+PLrGJ/Xvted7f9KMn18LHGqH4T5/hCI87L/EYGSFIUfNe/Q7bkLevTo0SaL37e//W2bNGlSEGh333233XXXXdaqVasgBNVKuYp1Xuncfbx371675pprUpY+pYsthRKNnTp1CkJ26dKlKXezRKlc4RKLSuNBQtPLwFroVNg2JIGVr61LWRL0zz1bcLdZ8uHhoi6TpSNbWdniXQDIGqaHQRwUF1s6dK51q5ZZXYkuwpTORZQe0nHwNBIkcfAHpeIkYiRO/aH39xf0MbGQ9cUf/p43+QCUYJV1JA4STePunR6sTRKbcpNncgdLVMkK5W5ct57+0w1fC+1Jise4Dt/3futYFkd93OIW91Hp1HadX/T8y8FN72XUZiuRJMuRynILmrdT/VEQc11b75s4JoViXKdbupyH7hGVofhcrnsvoz4ZxNdX7fJrlem70BDfn/iaxt8V/UiRKNO1cN7+g0sM9VH7NSZSaSV48wlyMyvoPt7w9uZqP5TUHk+TT3mZ0uiHgqzrhf4QyFRmU4trFKJQVrzhw4cX7dq9+eabdtJJJ9nrr78ehNrYsWPTypZglCCsKWjM4YwZM0KypKVw8uTJIV6uY4k9F3wSnAsXLkyNWRwzZkw1S2FynGNN7eA8BIpBQA8CFxsSRrGrMi7f00lU6eGih4e7pDydC6TYOqJzmcRc0u3qomzB4hdS5e7es69aPbH1yet1saZjCQCNKVRQ2kLcx8rrD8pQ0Id/NLZRHwXVmey/4pOW1vgh/WExqU0sVpyHxFEm17AsUaec+MHQm67Hpotlb48L3FgMSMDrYe2WFrnVPaiPsdtdQkD9qktw4XNB314pi7PKdVek7iO5xdVWfXSvuMjNVK/zi6+7roEsuO62Vz8U4vugvhio/RJ+uvYSvrJcy/qaDP5dULzSffdrl4fvWX1/f8TCLWuyBvvYwPheU5vELjnkw7976qMsqm9uejfZrXCs/nzhvLPCvu4t/T/QGF0F3adx3xWn9HUJEt6692Ul3/jOlmreg7qU3VTyNgpRWMyLpQkmzz33nF122WVBFBZS9s6dO8NEk4MHD9ozz6T/40xaCkeOHBmshz4JRSJRbmR9so0plCgkQKChCfiDQPXqH/qipcvDA1cPFhdAOqd/xnI5xUH/7OXCk8XGHzDK75YoTxuLxJrcx3rYe9AD9/bvXhMOPV983tOpnbH4k7CNxY+ny3ebfIAq35cvOs/+smZ9mhCM++XWMBc7yuN8XLQoztNpP86vYw9KoxCXJdF89ZcvtJmPPGWy7CYtOX6txD4WA15mvI0f4nF8pv34IR8Ls0xpFbd0+V9Dv9w1Gadzgac49Udp/vD8y8FSmnRnx+LL63XRp2MXP2Ik4aP7sKEYqC4JQwW1QzxrCrp/G+L74+3QDzFZoC/oe2bqPtN3wu8P7cdjW3XPiaXfs3Gf3PXfsf1RKZe936O6hm9u2hwm3Ii/XwNvh291PXP9kPR02rqgj9uiHy8Ssmq3WzjjPOznJlBWolAiS5/mzeuv2e4GljhctGhRoCerXuzGVaRb9rQvASdxN2LECLv99ttt8+bNlnTvZrIU9uv3gYukf//+oR4JRpWjcYiq86yzzkobU5ic0Rwy8QcCDUBADyo9JOIHtB4MHvwBon/CsibqQSMhU59BDxk9AJITQmSJ0INKAkAPmPihla09cV9c6OXTflnrXOTK8qW8J3Y7zi7+7NnBXe1168GoB5iLFreGZWpPLHLcVSqRpPx+nMynct3Fqsk9Elxu4ZHwlZWmvoPujUyu0Fz1io9bjpTOxZzK+vHt3wlZNSNbglAhaUmWdVN9lYjKZUWUANH9IvGTrys5VFjLP0kGupZxiMVuHK99FzYN9f3x77Tq1pAEHw6QbFd8rPvYvx9xfD77+jEmPhKYP5k+r9rYSi9D97L/wHORqXPxvSWOyYkmnl/u6Xy+u56ebTqB+lNX6fXU+aiqqsqeeOIJ69y5s33605+uc3m1KUAuXH0UfEaxJoQMHjw4VYxE5AMPPGA33nijLViwoNpMYk8YWwolCnv37p1mKXz55ZdDHUceeaRt3brVBgwYEGYiK78LUQlU5SNAoCEI6B+z/okrfHf4oJRlLRYicpFJtOjBdnS7ttatS2fb9uEYIuXT+Xj2qLuNkv+8kw995ZW40ceDHiwKn+vdM0xG8XjfauygLBUSRxqw78LMz8fbeJyXP/CS4yD18NTD3YWj169yJGh0ToJQ4kTn9HB1gRjXpX2V4eX4ORcDEitxP+N2xNYuT5PNfaxyJZa9zbIYJsdcet3Ztj7JQnWIUUMFtyC5GJD1UW2YfO1HYy1dOCpeVtCkJTRbW/WD5YEJN2Y7XS2+vhjoHokFjq6TWxO9EfX9/dH3QuPu/MebxgbmM55P97gv4+RtzXcra/4H4wk/sPBrvK2sed/92iD7j988Fu5RHcchNTmlyzHhR1Z8jv36IVAWolCCUOPsDj/8cDv77LPrh0Qepcra9/jjj5vG/WkSyIUXXphaq1AWRh//50Vp2RgJRIWkpdDTJLdnnnmmacazxO+UKVNCftYpTFLiuKEI+MNZDy5328X/uCW49KtegkoWDrnL1rzxVvhnr0kIehD47Npc7mOVr4dS/MCUGEtOrJCFQJa5XEFt0ng9WS/1UMklarwOPRw9xJYQCTM9yBS0L4tb7EqTAFQdMx5eaHv27A0WF9UXj43zOrp1OSblUlN5LkJVvtosl6/6JiGkoHaIh+rVvsfrnOJD+r9tDGkz/ZHlUOJUAlHbZFCf3W2YPDf40vPt5m9elYwu+nG47tE1clZqm0/SkUVI8Rof6WP0JAhjV3uhDTsUDGI3e9xu/ThQ0GQJfcfq8/ujH0763kpg63uy9OW/2v8sWhrqd5esDuL9n/zy4XD/SlDG/wNCpgL+SPiGH0+/fMj27Nln12jGfEIU6ljXyL8j+VSj/yPKQyiMQFmIwpdeeskqKyvtkksusWbNmhXW0zrmkiVQi1arDbLevf/+++FYy9DEi1TH1SiPL4DdsWNH27Fjhw0aNCiVZODAganZy4pctWqVnXDCCXb99dfbunXr7Kmnnkpb59AthUkrZapAdiBQZAKyMsWCMFvxscWmx2kn2uq/fSTcXFS5pVAPP58J7OOKJD5l2ZOFT+fqGuQq1MNODxWJCYlJCZ14jJGElsSFW49cpMUWOrVD8bkeMj6GSWm1Hwe3siq/z+qMz2fadxezHtixAM0Wn6kMxUlourCTmJVV1q+F53G3oR+7pU7H/oNAy9vE1jhx0zWUIK5LcG56iJ/88Q9KSlrzXCS6OFEfcrmJC2lPQzCQpVyCVj+S4h8+aq++X7Gl8FB8f7Se51e/fGHA58x1z7oVW/eSB4nCQoIWu9Z3XEsF+XdTXDzoh1Uc1A6lU0h+r+J0yX2/1/U/gFB7AmUhCleuXBl69stffrSYZu27WngOWfm0NM0555yTchnLdSzhdsUVV1QbP+g1yZ0sIXfGGWcEq+LRRx8dLIzJhae1dI0Eo2ZRy/2sfFq8WqJRS9W89dZbqWVusglQr5MtBIpJoBjWGD3oYzGiB0FyAoQsBrKgaOZg/ACK++LWxDgu277q1MNeoqrXJ7vbhk2bgyVT/fHxdSd0OcZOyLGsjpet9HqQSwR5Xj+ndsui40HuNRdQ8cM1KTSV3stKunZjF7Pq9ZAtXudznfugro8m5Uggq04f1yjRmym460590sfd1t4Xida6BPFU/2RhlhBKXne10+uUGHRLdV3q9LyHgoF+FIhjTZZCb6NvG/L74z+M9GNJlmiN55RglZU/eX28ffHW75lMlj29/UR90Y8NiT0JPa9DPzx0P6g+BW+H9n2YQFxPtn39j9CMdVnlM828z5aP+I8IlIUoLOZyMx91Pb89We+0ePWECROqjeOTu1jjAmX9k5B7+OGHw6STYcOGpSyAEnU6F08miWvWxBLll2D8x3/8R9PyN16X1ivs06dPKrlbCv1NKElxmUrIDgRKhICPy1JzXEy4WJLFSUH/9K+45LNhm8kioH/08WxEpc/lEvauSwDq4a91/iQ+9ACKxYBbaH674KO3DCmvt0v7eohZMwtiVVZTiRTV7yJXLje3psiCooea6lDwtC6svb7YOvJB3z9YuiZk+nB5HFnsamMpjMd3yhqjoPzx+EWlUX+8PV6fBJn6EPfbzzk38fZ8un7Xj70nZT39l599sH6q8vhYUWeSS0ioTIkB1es/EuI2q25NNsnnWnt78916Xzx9fTHQ8jIKfu9LFKpfNY0p9HbV5/dH96nuUV0rzdSXNTbJXOtm6prIyq97NclN7Uze1xLwPmTE+1HTVlx0HyivLHzyFqg+hUx1ZivP11EV71z3Xrb8xJs1q6io0EsHSir89re/Lfg1d1pOplRec1dSUBtxY9q2bZtX7yp2l/c4E42tVdAMfA2n2Ldvn+3atdO2bdtmWzZvNqs6GIY25AWDRBAoEQIuTlw4lUiz6r0ZsTVMlfnwgHqvuJFW4DyziddG2u2id6skRaFcp3r/cW1fWae3gJx33nnh/cBFJ0WBJUsAUYgoLNmbk4ZBAAIQKCMCJek+lnsUa18Z3UU0FQIQgAAEIACBsidwWNn3gA5AAAIQgAAEIAABCNSZAKKwzggpAAIQgAAEIAABCJQ/AURh+V9DegABCEAAAhCAAATqTABRWGeEFAABCEAAAhCAAATKnwCisPyvIT2AAAQgAAEIQAACdSaAKKwzQgqAAAQgAAEIQAAC5U8AUVj+15AeQAACEIAABCAAgToTKMl1CuvcKwqAAASKQmD27I9eYVaUAikEAhCAAATqlcDQocMKLh9RWDA6MkKgaRCoyz+YpkGIXkIAAhAoDQJ1/SGP+7g0riOtgAAEIAABCEAAAoeUQPNuG28/pA2gcgjUlcC2U35U1yLIDwEIQAACEGjyBLAUNvlbAAAQgAAEIAABCEDADFHIXQABCEAAAhCAAAQggCjkHoAABCAAAQhAAAIQwFLIPQABCEAAAhCAAAQgYIhCbgIIQAACEIAABCAAAUQh9wAEIAABCEAAAhCAgAgw0YT7AAIQgAAEIAABCEAAUcg9AAEIQAACEIAABCCApZB7AAIQgAAEIAABCEAA9zH3AAQgAAEIQAACEICACDCmkPsAAhCAAAQgAAEIQMCalzqDOzt/2a4/+nO23w7Y6/u32OydL9pPti2ySjvYoE0f1u4zdvcxV9qLe9+wKzY8kLPuh7pdb10OP8rOfeNfcqbjJAQgAAEIQAACECgVAiUvCv+/o86z4Zv+0556/zX7u5Zd7EfHXmmntzzevv32zHph+Lk2p9gDx11txzc/OmP5F7Q51bad8qNq5946sMOuf3um9WtzivVo2dX+/83z7LaOX7Tvd/iCtWx2eLX0f933dko0Kt2o9p+zqduftru2PhbSSliqrjjsOrjXbn73tzZr54sh+rmP/x/7ZMvj4iRZ9719T+9enTUNGX5ZHQAAIABJREFUJyAAAQhAAAIQaLoESl4Ufu+dWXbPsVfZzPeW2Q+3LghWut91G23/esxX7JZ359pBqyrq1ZNoOn3d+FDmvccOtT6tT0yJt2RFEm4KseXwX475is2vWJkSbkt2r7YfHzvUfrPzjynBJzG3qfK9VHEuBCUMFfx40e5VqbIlHEce/dlUHt/xNDp/VbtP2/ffmR1OSdg+8f5f7IZ3Zpv6cXHbT3kWthCAAAQgAAEIQKAagZIUhf/U6Ut23dHn23ffmWUP7XrZFu9eHVy3T3/sH+wbb//KvrjhJ/br40faDR0utHu2LazWqWJGyBKXyTLodUiUeZBIlNiTENP+Z1p93O7fvsjaHdbak5jc0Ecd1tomb3syFacdCUEXg7JWntbi2CDq0hJlOEhaLud1G5VK9bWj+po+CrIUEiAAAQhAAAIQgEA2AiUpCr/b/vN2zaZpdt+xw4Ig3FJZYXK3fqrlcbbpwHtWcXCvjXnnNyaLYX2LwtjNm4TolkLFu5CT21kiUiLsmremBTd0q2bNrUvzo0L2rx7V217b/07KkpgsU8f/0PHiICSf2b0m0+lUXKYxi96m2HqZysAOBCAAAQhAAAIQyEKgJEWhJpE8UfEX+/V7LwQLoYTZoCN72Zc3TLXNlbtCV9bs32xtD2sZxNPOg3uydK9u0bL45Qqx8HK3syyBlx7xd/aNTb8KWXWsIDe0giaguPVR/Vq6Z13Kmier4xv7twYLYzx2UPnkhr72qD5hvOO9xw4LovMTLTqGMjP9yWTdzCVwM5VBHAQgAAEIQAACTYdASYpCCaNPtexiE7c+ZnIZy0IYC0K/PC2bNbe9Vfv9sGhbn2l85GGt8irTJ4AosWYoK99XTjk7WDfdTXxSi85h4olb9zSuUIJQwlMfHSv4cbJiF53J+OQxlsIkEY4hAAEIQAACEMiHQEmKwvkVr9hXjzrHbt/8SBhDKJexWwi9U4fbYfb6/s32Dx0uDhNQPL5Y271VB2zq1o9mA2crVwJSYyAV5BqWUP3XrY+nxgdqAojKWrP/Xbv8yF4hXnGdDz/SMrmHa5r9HFv7cqWNLYUuWn3Wcra+EA8BCEAAAhCAQNMlUJKi8Gc7Ftuij/2DTX/veVu5d2PGqyMX8+UbptrDH06s0Mzk+gi5rIa/fO/5NGEXu5O9LX3anGj7qg6E9RUlYCd2viK4wlfu25hxXKEsgv93y+/snzsPsmk7/jclLr0dsi4mg9qRzdUdi9ZkPo4hAAEIQAACEICAEyhJUbjxwA77py2P2ryu14e1+x6pWBHG0GnW7p6qA+ZjCN+t3NUgwlD1xWP83ELnEOOtrIC+NuF/73opzCLWxJL7tz8dXOLXt+8f+vJvW5+Is6X25f6V+1zL2miJGlkYFXzh7EziL55lnCoo2pGlkAABCEAAAhCAAARyEShJUagGa13Cv+zdZCOO/qw92r5/cLdK3BxxWKvgNh6xaXoYs9cQwlBLymjdP32yBU0eefXEO8LElxvemRWsgFofUHl//d6ykM0nmygu0+LYWl5GfVR6uXrlNtekEi1+ncsamOsclsJsV4x4CEAAAhCAAARiAiUrCtXIP+5db398Z1bc3rB/9VG9w3I0d2x5JIhHCUONP5x63Fft7m2P24Gq4r4CL2kpjBsk0aWgsX6+6LWOFT/4yLNs7q4/hfPru98VtnrricYeSmCe3+bk4PaV5VFWUBd3sja+ffK/BDG4bv8W05I2sgbmWkg7FM4fCEAAAhCAAAQgUCCBkhaF2fokK+KLe96wX3T5uvVrc7L9btdKm3jMFfZ/3p1bdEEoi12mCRrxK+YkCJNpJPz0nmS39s3a+UJq3J/Supv54y06hreWSFBKSEo8arLKj7ctTI0ndA5yLWsCye6q/WHWdfvD2oZTNbmPlUgiVC7o2A3u5bKFAAQgAAEIQAACzdqv+ofivieuAZm2btbC/u3YK+3TrT5uYzc/nNcbQBqweVTVQATimda5qqzYXd5jK6uqPviqHjx40CorK23fvn22a9dO27Ztm23ZvNms6qANGDAgF4Jan5s9e5YNHTqs1vnIAAEIQAACDU+grv+zy9JS6Jj3VO2377z9X37IFgIQgAAEIAABCECgQAKHFZiPbBCAAAQgAAEIQAACjYgAorARXUy6AgEIQAACEIAABAolgCgslBz5IAABCEAAAhCAQCMigChsRBeTrkAAAhCAAAQgAIFCCSAKCyVHPghAAAIQgAAEINCICCAKG9HFpCsQgAAEIAABCECgUAKIwkLJkQ8CEIAABCAAAQg0IgKIwkZ0MekKBCAAAQhAAAIQKJQAorBQcuSDAAQgAAEIQAACjYgAorARXUy6AgEIQAACEIAABAolgCgslBz5IAABCEAAAhCAQCMi0PytE/65EXWHrkAAAhCAAAQgAAEIFEKg+cGDBwvJRx4IQAACEIAABCAAgUZEAPdxI7qYdAUCEIAABCAAAQgUSgBRWCg58kEAAhCAAAQgAIFGRABR2IguJl2BAAQgAAEIQAAChRJAFBZKjnwQgAAEIAABCECgERFAFDaii0lXIAABCEAAAhCAQKEEEIWFkiMfBCAAAQhAAAIQaEQEEIWN6GLSFQhAAAIQgAAEIFAoAURhoeTIBwEIQAACEIAABBoRAURhI7qYdAUCEIAABCAAAQgUSgBRWCg58kEAAhCAAAQgAIFGRABR2IguJl2BAAQgAAEIQAAChRJoXmjGhsi3cOFCe/PNN3NWdcIJJ9gXvvCFnGmKcXL37t02btw4GzJkiPXu3TtjkZMnT7Zp06alzo0fP94GDx4cjj1/ly5dbMyYMak02XZU1gsvvGBTpkyx9u3bZ0tGPAQgAAEIQAACECgKgZIWhRKEw4cPz9nR6dOn5zxfrJNt2rSxc88918aOHWtTp0617t27VytaYs8Fn0SdBKuHxx57zNavX29/+tOfrF+/filh6WJx/vz5njRt279//7RjHYwcOTJVT7WTREAAAhCAAAQgAIECCJS0KJSoctGXFIceHwuvAvqfMcuyZcuC8Mp40swGDRpU7ZQshKeeeqo9+OCDNmLECNu0aVMqjcqbM2eO3X///bZ161YbNWqUTZgwISUM27VrZ/PmzcsoNFOFfLgzd+5cW7duXTKaYwhAAAIQgAAEIFAnAiUtCt0t7AJQ21gcxvt1opAh88CBA4O7WBbCXMEtfUojwVdRURGSS+h16tTJJAjduig3sD6zZs2y0aNHB1e03Ms6r3SZxGZcd9euXYOV0l3S8Tn2IQABCEAAAhCAQF0IlLQoTHasPkVgXJfGDPq4QbmBZfXTeEIJRIm3JUuWpNy3ips0aVLIrnNHHHFE2N+4caM9++yzJrewxiEmBV+vXr3sueeeC1Y/uZxV34oVK9JEpLuoFy9ebD179mRsYXyR2IcABCAAAQhAoKgEykoUJi2FRSWRpTAJtrVr19oVV1wRXL5ZkqWi5Ub2ySY7duxITRS57rrrUmmy7bgAfeihh4IAjdMNGzYszeUcn2MfAhCAAAQgAAEI1JVAWYnChrIUCur27duDi/ecc84JVsEFCxYE1rIGZgtu7dN5Ccm7777bnn/+edMs6ltvvdUmTpyYmr3sYwN9YoqOXUxmm3SiCSZMMslGn3gIQAACEIAABOpCoOTXKVyzZk3KbepjC+vS4XzzauzfjBkzwkzhAQMGBJGnvHIdn3jiiVmLkbiTq3fmzJkhzWmnnWY7d+4M4w01e1n5NQ7xlVdeSXMpa5yg3Mf+0cQTWQeXLl2aitO+JrEQIAABCEAAAhCAQLEJlLSlcNu2bWGtvr//+78P/Y4thRJtr776qp1++unFZmISdnfccUdauckxgcnzV199ta1cuTJYAiXs3FLYoUOHMCv55ZdftjPPPNMef/xxe/rpp4NQPP7440MdbpVcvnx5Wp060KSUOOQ7ASbOwz4EIAABCEAAAhCoiUDJisIDBw7YokWLrG/fvnbUUUeFfsRjCi+++GLT2n+tW7fOaymXmkDE52W1S87w9VnGcu3KzesTUeJ8yX3NFm7VqlWwNspCqDK1LI3GDmryic9sdqtknF+iUtbGm266KZUuPs8+BCAAAQhAAAIQKCaBknUfP/PMM9atW7c0V21sKWzbtq1dcskl9uKLL9qGDRuKySStLIkzuY/79OkTFq+WFVACTy5ifbKNMdyyZUuwBqowCUgfO6jyVq1aFayHaRVxAAEIQAACEIAABA4hgZK0FMot/P7771umt3nErLQWoNYyfOKJJ8L2mGOOiU8XvB+7j+WuTc4GlsBzkSernyZ/yHrYo0ePsHSNTxSRVVBL2fhx3CDv2y233JJa0iY+7/tJ97HitZwNr79zQmwhAAEIQAACECgGgWYVFRVVxSiomGX813/9l33pS18yib58gt7w8ec//9l87GE+eUjTeAjIapxPqNi9N59kJZumquqDr+rBgwetsrLS9u3bZ7t27TSNvd2yebNZ1cFg1S5mB2bPnmVDhw4rZpGUBQEIQAAC9USgrv+zS9JSqLF4stblG5o1a1YvE07yrZ90EIAABCAAAQhAoNwJlKQo/NznPmf6ECAAAQhAAAIQgAAEGoZAyU40aZjuUwsEIAABCEAAAhCAgAggCrkPIAABCEAAAhCAAAQQhdwDEIAABCAAAQhAAAJYCrkHIAABCEAAAhCAAARwH3MPQAACEIAABCAAAQiIAGMKuQ8gAAEIQAACEIAABKwkl6ThukCgFAlosehDGeLFq7WAtdqzf/9+O7D/gB04UGnND292KJtH3RCAAAQgUOYEEIVlfgFpfsMRaNmyZcNVlqGmWBTqjSY63revhTVv0dyaNz88vNEkQzaiIAABCEAAAnkRwH2cFyYSQQACEIAABCAAgcZNAFHYuK8vvYMABCAAAQhAAAJ5EUAU5oWJRBCAAAQgAAEIQKBxE0AUNu7rS+8gAAEIQAACEIBAXgQQhXlhIhEEIAABCEAAAhBo3AQQhY37+tI7CEAAAhCAAAQgkBcBRGFemEgEAQhAAAIQgAAEGjcBRGHjvr70DgIQgAAEIAABCORFAFGYFyYSQQACEIAABCAAgcZNAFHYuK8vvYMABCAAAQhAAAJ5EUAU5oWJRBCAAAQgAAEIQKBxE0AUNu7rS+8gAAEIQAACEIBAXgQQhXlhIhEEIAABCEAAAhBo3ASal0P39u/fb6+//rqtW7fOtm3bZu3atbNjjz3WPvaxj4Vts2bNyqEbtBECEIAABCAAAQiULIGSFYV79uyxt956yzZs2BC2J5xwgp155pnWqVMn27Fjh23atMlefPFF2717t5100knWvXt3a9++fcmCpmEQgAAEIAABCECglAmUpCh84okngkWwS5cu1rVrV+vbt6+1aNEixVHCUJ8zzjgjCMTVq1fbwoULgwXxkksuSaUr5s727dvttttus5tvvjkI0HzLlmgdN26cvfnmmzZlypSMwnXt2rU2duxYmzBhQqrsuXPn2h133JFWTa9evdLKmDx5sk2bNi0tTbaDgQMHhna0adMmWxLiIQABCEAAAhBowgRKckzhO++8Y1deeaX179/fTj755DRBmLxWRx99tH3mM5+xQYMG2ebNm5Oni3YsK+SIESNs1KhRJhGXT5CQ/OY3v2kSt0OGDLHRo0eb4pJBVk4JQgnDuOzx48fbihUrwmfevHmmviaDp9H5YcOG2dKlS8NHIlCCUfnzFY7JsjmGAAQgAAEIQKDpEChJS6Hw13acoNJXVVUV5cpJuEnALV++PGN5EqBxkDVz6tSpKSufzrmlT4Ksd+/eIblc4BK6cZyXI2E4c+bMcCjr4nPPPReEpJ/PtpU1MbYozpo1K5V0/vz5qX2JRAIEIAABCEAAAhDIRqBkRaEEXk3CcP369fbyyy/bZZddlq1/BcdLwGVz98aFulvZ45YtW2YjR440iTBZ7WJ3rcSh4uROvueee7KW/9hjjwV386mnnurFZtyOGTPG9ImDxKjC4MGD42j2IQABCEAAAhCAQE4CJSkKDzvsMDt48KBpmy1oosmSJUvs7LPPDkkkInOlz1ZOvvESW7LeSdDFQs/z792712655ZZwKDeuLHaxpc7T+faGG24I1kiJT08nV7CO58yZU00wHn/88WHMpCyNskzKvX7fffd5cdW2sfXQT0qsJkWkn2MLAQhAAAIQgEDTJtCsoqKiOD7XInKUABswYIC1bds2lCrxp0klHTp0CMcaO/jkk0/a6aefbj179gxxmq386KOP5uVyrW1TZf3LZdmrqTxNCOnXr1/KjZwpvdKceOKJdbbwNUVLod8nmbjGcRW798aHZbfvwyP0g6mystL27dtnu3btDJOytmg8bdXB8L0pZsdmz55lQ4cOK2aRlAUBCEAAAvVEoK7/s0vSUnjEEUfYrl27UqKwZcuWQQRKKOphqJnGp5xySkoQiu3777+fSl8X1j5b2K13cVmy0mULxZrdm6t+1R1b+3KljS2FyVnL2fpAPAQgAAEIQAACTZdASYrCzp07m2Yga4FqhT59+gSriJaqkZVEi1ZrxnEc3n33XevYsWMcVdC+XMOTJk0KHxWQzYIn66HcvEl3smYPa4byxo0b0+pPzgDOJtRU/6233mo7d+5MW/7GJ7/I4pgMmSaueBrlmzhxoh+yhQAEIAABCEAAAhkJlKQo1GLUTz/9dHAZ+2STz372s7Z48WI7/PDD7dxzz63WGYkxCa1iBl8HUNa5OKgundMyMsnxhZpFvGDBgjh5SFuT+9gzyP2rcYVa/ub2228PYwt1TrOhtayNz2T29Nom2xef036xuSTL5xgCEIAABCAAgfInUJKiUGMHtTi1ZhafddZZgbImkVxwwQUZib/22mshvlu3bhnPFxrps3tlFfSxiypLIuv+++/PuBB1oXUpn1y+sQXxzjvvDGsPyuqYyxqY6xyWwrpcEfJCAAIQgAAEmg6B7NN7DzEDvcVEbwFZuXJlzpbIavfKK6+EiRw5ExbhpGb9apHoc845J6w3KGthMYLGBmo2tcTdjBkzbOvWrWHCgNZD1DhGjVeUNbBY9RWjzZQBAQhAAAIQgEDjIlCSs48dsWZXLlq0KLzRRC7j1q1b+ynbv3+/yYK3ZcsW+/znPx+Wa0mdrONOclxgPLkjLlr165yf9+M4TU37sZXPxw1qdnVyMWyVI9eyrIk9evQwLVHz+OOP11R82vnYCpl2oswPmH28zZh9XOY3Mc2HAAQgUAQCdZ19XNKiUHy0DIeshX/961/DGEON2XvjjTfC20a0hIvcyxpnSGi6BBCFiMKme/fTcwhAAAIfEairKCzJMYUfde+D191pPJ8EoMYYSiBqVvJFF11U9DF9cb3sQwACEIAABCAAgaZEoORFoV+Mdu3aNci4Qa+PLQQgAAEIQAACEGhKBEp2oklTugj0FQIQgAAEIAABCBxqAojCQ30FqB8CEIAABCAAAQiUAAFEYQlcBJoAAQhAAAIQgAAEDjUBROGhvgLUDwEIQAACEIAABEqAQNlMNCkBVjQBAtUIHDhwwJ588knbsWOHXX755WlracaJN2zYYL/97W/t4osvttNPPz11yuO7dOlSLf+ePXvs4YcftvPPP9/0th6vS8szKeg94JWVldayRQv75Kc+aUe0+Wgdz1QF7EAAAhCAAATyJIAozBMUySBQLAIu9vQWGw/a/9nPfuaH9pnPfCbsK15i8sorr7SOHTsG8dnluONs4Je+ZHov+OKnn7ZVq1al8rEDAQhAAAIQKJQAorBQcuRrcgQyibkYQizqFC/rn15R+Mwzz4TF1xX3xBNP2Cc/+Un7yle+Ym+//XYQfDrWupvNm1f/Omp9znXr1tlRRx0V3t4jkXjaaadZ8+aHW2Xlwbh69iEAAQhAAAJ1IlD9KVSn4sgMgcZPIHb1ulA8+uijU8LO3bxyKUvoDRgwwD72sY8FQejuY+WTWFTQawuVTscdOnRIcy/LbayP3of9+9//PpX+8MObW2XlPuvarZstX/6yvbBsmV3wuf6NHz49hAAEIACBeiOAKKw3tBTcFAi8//77VlFRYRKF2YIEoN7E40GiUe/0ltVPArNTp06msYUvvvhieIe34nROVkUFuZI1rrBv3762bds269q1axhLqHPHHXesXT5oUOrdx14HWwhAAAIQgEBtCSAKa0uM9BCICOzevdt27txpGzdutPfeey+M+4tOh90tW7YEkacDCb34Xc0Sf+52lhv57LPPtiVLltill15q1157rc2bNy+UISG5fv364IaWeFTwiSaVB/aH93+f27dPiOcPBCAAAQhAoBACiMJCqJEHAmZhNrBbACUMf/WrX4XZxRrz5yF2E3vcU089ZYMGDQruZs1c1mxiWQP10WxjCcW1a9cGK6LnkXu5d+/eQXxecskldtxxx9m+fftszZo19tj/zM9pqfQy2EIAAhCAAARyEUAU5qLDOQjkIKCJIklBJ0vg6tWrU7kk5uRa1rhAWfh8TOGrr74aRKTe6S2LoKyHLgg109jHEaYKMgtiUeJTQrRz505BlK7+cObx8cd3jZOyDwEIQAACEKg1AURhrZGRAQIWZgJr4odcvhrrJ/GnGcWLFy+2M844w1566SWTlVDx3bt3txYtWgRRuH//fluwYEEQk7H4+/Wvfx3c0B6XibHWN9R4Q7mUly17wY484gh7fd0663bCCdbuqHaZshAHAQhAAAIQyJsAojBvVCSEwAcE5N7V2oESaBdccEEQfjojAXjhhRcGC17M6tRTTw0TSRQncajZyPooyGLoE0p0rBnIyUWw5SaWy7lXr17BonhE27ZBdGpM4RFHHBGWqNm3d69ZFUvUBKj8gQAEIACBggggCgvCRqamTEBiMCncYh6aFKLlaHIFLTEji5/cwb5O4WuvvRYEotzIKt/DihUrwnhDTWrRuEWFI4880lq1ahVcyuvfWB9mIXt6thCAAAQgAIFCCCAKC6FGHghkICArn88M1mm5glu3rv7qOX+1nYtBWRgV5B7W+ENZITXRxJe50ZjDP//5z6mFrmWN1NtMZEHctWunPbPkmbDEDesUZrgoREEAAhCAQN4EmlVUVFTlnZqEEChBAvESL7maV7F7b67TJX+uquqDr6ovReOiUGsXbtm8ObiP3S1drM7Mnj3Lhg4dVqziKAcCEIAABOqRQF3/Zx9Wj22jaAhAAAIQgAAEIACBMiGAKCyTC0UzIQABCEAAAhCAQH0SQBTWJ13KhgAEIAABCEAAAmVCAFFYJheKZkIAAhCAAAQgAIH6JFAWs4+1vMeqVavCK74qKioCD63P1rVrV9MacD5Lsz5BUTYEIAABCEAAAhBozARKWhRqluULL7wQ3u+qt0T079/f9FowBa3vtn79eps/f76dfPLJds4559hhh2H4bMw3K32DAAQgAAEIQKD+CJSsKJQg9Dc9aCFfWQbj0KFDB9NHglDrwymt3iuLMIwpsQ8BCEAAAhCAAATyI1CypjVZCBUuvfTSaoIw7tpbb70V3jHrVsX4XLH3ly1bZrfccovpzRK5gs4rndIrJI8z5VXayZMnZzqVitu+fbt95zvfCQsbe6TKnjBhQlqcn9MCyDpXU3s9PVsIQAACEIAABJougZIUhRpDuGbNGjv//PNzXpnVq1eHd8dedNFFwbWsPDW9XixngTWc7NGjR0jx2GOP5Uz5wAMPBLf2yJEjrWfPntanT5+0Y8Xpo4WGJdwUevfuHbZz587NWXbyZJs2bUI5o0aNSpUVp1m8eHGoP1OdcTr2IQABCEAAAhBo2gRK0n2sSSUaQ5h0GceXKhaEnk55lFfjC+saZF0bN25cEHPJsjSO8Y477kiLlgAcM2aMSdRt2rTJli5dahJsCl7WkCFDUuIvLfOHByNGjLCJEyfaWWedZWPHjrXly5dnSmYSegrjx4+3wYMHhzJlEdS7dNWGOGgc5k033ZRqS3yOfQhAAAIQgAAEIOAESlIUbty4MVj+vJHJbSZBqDQf+9jHUoIpmafQ42nTpuUUcslyJdL0KSS0b9/eJk2aFLLOmDGjWhFyH99222128803W/fu3dPOy9IoS6bc1hKtcZg1a1Z8aC5g0yI5gAAEIAABCECgSRMoSVGoZWd8lnHy6mQThEqnPL5kTTJfQxxrXKAEV7aQFGtKp2V17rnnHvvP//zPIOYGDhwYLJQaK/nkk0/addddl624EO/uZheiYiCLoUSj2jNnzpxQnqyWEpWjR4+2fv365SyTkxCAAAQgAAEIND0CJSkKs12GXIIwW56GjJe1bsWKFQVVKQvht7/9bZs5c2bIL1EncSdh5+MNMxV82mmn2V133WXPPfec3XrrrSGJXOgaYyiLq4KLUVk9p0yZYq1atcpUFHEQgAAEIAABCDRhAiU50URjBLUOYRzyEYTK4+ML47wNvS/rnU/syLWV4MsVNMbwwQcfzDiBxPNpHKWEnvq+YcOGEK0FvRcsWGASgbI8anyjxGqnTp3sJz/5iWdlCwEIQAACEIAABFIEStJSKJeqFqbWOoQK+QhCpVMe5S1G2Lt3bxBaElKFhFzj9nziSU3laoyhhOHLL79cbQxhnFfp7r///uAeduugzkscvvnmm2H2safX5BSfAONxbCEAAQhAAAIQgEBJikKJGbk8tTC1xta9+uqrpmVnclkBNZbwlVdeCZaxYlxWuWC1vE3Hjh2LUVzBZch1HLuPNWYw2SYfOzh8+PBQj5+XWNSMZ318zGHBDSEjBCAAAQhAAAKNmkBJikK9y1iCcOHChVZVVVWjINQV0ltNlKdY70FesmRJWNpGwqqhwpYtW6q5zVW3FrWWK1hBFshkm9TWc88911577bUw2Uau4kcffTTsy72soCVrfCmbqVOn5rQ8hgz8gQAEIAABCECgSREoyTGFugJaa1ATIlq3bp3zgshC+Pvf/z6kKcb6hCpIljctUD1o0KCcdec6KRGXbTyhL2YEexF4AAAOyElEQVQd59c4RM1CPuWUU8Js4fgtJFp7UEJPn+Q6hJpRLKvmCSecEGYaf+ELX7Bf//rXYdKKW1ZlJdRC2Vr/UNZETWAhQAACEIAABCAAgZhASVoK1UC9w1jvMtbr7h5++OGwmLXWIfSlajSxQmMI5TKWhVCCsFjvPZbl7frrr6+TNa02YwolANWPO++8M7WUjIRjTUHjAyUGxURWQrmJJf70UTjxxBPDItu+0LYvdl1TuZyHAAQgAAEIQKDpEWhWUVFRVerd1tg+WcM0icLXIZQVTJNKNP6wWC7jUudA+zITaNu2beYTidiK3XsTMeV1qKEUCnrPd2Vlpe3bt8927dpp27Ztsy2bN5tVHUz9IChWz2bPnmVDhw4rVnGUAwEIQAAC9Uigrv+zS9ZSGDOT6CuWazgul30IQAACEIAABCAAgQ8IlIUo5GJBAAKHjoB+eRIgAAEIQKDxE0AUNv5rTA8hUDABXMcFoyMjBCAAgbIjULKzj8uOJA2GAAQgAAEIQAACZUwAUVjGF4+mQwACEIAABCAAgWIRQBQWiyTlQAACEIAABCAAgTImgCgs44tH0yEAAQhAAAIQgECxCCAKi0WSciAAAQhAAAIQgEAZE0AUlvHFo+kQgAAEIAABCECgWAQQhcUiSTkQgAAEIAABCECgjAkgCsv44tF0CEAAAhCAAAQgUCwCiMJikaQcCEAAAhCAAAQgUMYEEIVlfPFoOgQgAAEIQAACECgWAURhsUhSDgQgAAEIQAACEChjAojCMr54NB0CEIAABCAAAQgUiwCisFgkKQcCEIAABCAAAQiUMQFEYRlfPJoOAQhAAAIQgAAEikUAUVgskpQDAQhAAAIQgAAEypgAorCMLx5NhwAEIAABCEAAAsUigCgsFknKgQAEIAABCEAAAmVMoHkZt52mQ6BBCezbt69B60tWVlVVFaIOHjxo+qg9+/fvtwP7D9iBA5XW/PBmySwcQwACEIAABPImgCjMGxUJmzqBli1bHlIEsSisrKw0He/b18Kat2huzZsfblZ18JC2j8ohAAEIQKC8CeA+Lu/rR+shAAEIQAACEIBAUQggCouCkUIgAAEIQAACEIBAeRNAFJb39aP1EIAABCAAAQhAoCgEEIVFwUghEIAABCAAAQhAoLwJIArL+/rReghAAAIQgAAEIFAUAojComCkEAhAAAIQgAAEIFDeBBCF5X39aD0EIAABCEAAAhAoCgHWKSwKRgqBQOMn8N+bltotOx62zYfvzquznSvb2KSjL7evdOmTV3oSQQACEIDAoSWAKDy0/KkdAmVDoDaCUJ2SeFSeYojCP/7xj/biiy/addddF3jp+Kc//Wle7L797W/bpz/96YxpH3300RB/2WWXZTyvSKXp2rVrtTLUho0bN1qmvIXkyVbe9u3b7Wc/+5l961vfsvbt24d2Km7SpEm2devWrO2OT7Rp08a+//3v20knnWR79uyxf//3fw/t1rFCpjjPr3P33nuvrVmzxqOybr/85S+n8Yj5qs0//vGPbfjw4bZt27Y0dq+//no4t3v3Bz841N5+/frZ448/nrEuryd5H3z961+3JUuWZGyr5/ECVef06dMDF+fq55LbZPt0XveVQnwfxpyTZXAMgXIggCgsh6tEGyFQAgTytRDGTa0pTyZxc/LJJ9sNN9xgrVu3jotK25fIix/GOimBEAvHtAxFOiikjkLy1NRciZiJEydWSybxIi4SLC74koneeustk/iSIJKojcPKlSvjw1DO6aefbhI7P/jBD1JlZuqTC0AvQGJS7XHRrOvZsWPHcLpDhw72xBNPhH2dV1vvueeeIMAVqTjV4UJO+y7Ak/V4GgldhWRbFZfM40JbovqWW24J+ZJ/vFyP132pHyXqh9elc57OhbWnZwuBciSAKCzHq0abIVDCBPq0PtEGtD3d7tw6v8ZWJsWNRIQe4PpkshK98MILQahks/xlqzCT+IzTPvLII/FhEC8SC/lYkG688cYgss4555yUJTOtsMSB+lhTHgmMX/7yl3bVVVclcuc+fOaZZ3IKQuV+5ZVXTELPxZriXNC4QItr0blCwquvvhoEVCxOJUZlJdT1k+VTlsMzzjgjJTaT9ei6xNfG9yXEahMkhD/zmc+ELH4vSNxl+gGie08cZamMgyylsrZ68PLiNkqQEiBQzgQQheV89Wg7BEqMwKdaHmezjv+G3bNtYV4ti8WPBJgEgx7WQ4YMCR8vJJNlys/ls02KT+WROJMoUXDXalyWzo8bNy4IPsVLQEgoSJjq48HdiLJSepnuBi0kj0SG3KC1Dapb1jQxjIVYXI54K51b4pLW1thS6BYw5Vd/fvjDH8ZFhf2YgyJcrKkeWQIlPj3ouspCKE5xvXKNZxPg3oZclsJYlElgelAer0fXQW2RINQ1lyAVI7/Gfg117uKLL85ohVUZ2SyFEojqW2xB9HawhUA5EUAUltPVoq0QKGECXQ8/2uZ0/ZbN2fWS/Xj7U3m1VEJBD9Tf/OY34YErUXP88cfXuytY4kCiRSLPBczXvva1NJd17NLUmEIFiQy3CLpQkdVL+2p3XfJ4eRJsapMseh4k9NzNKRdsUkQpvcRW9+7dPUvGrax38dhA74vyx+MMvS1eSNIlq/NJV33sovV6JMRUbiweJa4kvnTtixFcOCYFWaYhBqrzn/7pn1LViqs+mQRvKpFZuK7f+973UlESh95fiUiNuVSoadhDqgB2IFCiBBCFJXphaBYESpXAyS2OsTX7301r3tGHtQmC8I973rD/8+7ctHM1HejhLYGhh6zE2vnnnx8ewoqT+ND5OCjOLUBxvO/HAsTjZAnyctxapAkPEl4SChIvctf6RBbPF2+VX+WoXfmGQvJkKltWqKQQjNPNmTMncHMhKYEkkRq7iNVvWdVUVqYgDtnOZUqfLc7r6dGjR0gips5V11iu3KQgVJ544ozctxJbsRVQhelYwS2S4SDxJ5tVUwJYP0Die0dx8bGKUhvdcigxfP3119vDDz+cJqbjKr1NinP3cny/xWnZh0CpE0AUlvoVon0QKDECv+16nc37f+2dPWtUQRSGJ6IIsbBI4VdjmUJS+g9iFEGItiGQFRvtA8HC2pRio2CRQrTRyh8gwcpGSGmRypgEEiEfS0hIduW58V2G4e5m9+Ym7g3vwOZ+zZw5886VeTwzs7u9EF6sH+7cvThwPny4Vgt/GvXwZPV9aIZmzx6zdg4oIAlkgAIG6HgKkueAVjqQcz8vepUZjP7EQEhUTxCFTaKUwJQAJip25Clle01FyuTVgUZMj6s9RP3QEMgFrgSTRMSAoMXFxZYZADqG6Pg8Bq92oBXnxyhlsM8xr31EXIki4mMMhprepy0k/Kc/saNz7HGuPK1GJCeA3OjoaBYBVF+qTN67o2fYVt06l+nh4WGdtpYI8H4CuOjqCGFLHp9UXAFDYcU70O5bgdNWYHJlLny58TQs72+ENxvfwrsrE4FI4b2l12G3uV/IHaCACKE2J2AEyCFyxcBbRgIy9BUk2E6TgGNmZqYFUmme9Jo1aWwaISlKlOZJr4uUSW3omjahj+CH+8AWUcLp6ekMrIBCwRX3BYUAEiAuOAOI0QBtsCuoA+BI5KWfSDxvN32MXZLKZxf//mh6O4XCOI/OsSNbuscxBbY4mqg1hdTD8gD+E0DivWIdIQnf8/5TEUf8yKdoH/3FdHe8TpTpZunGc3Zm6zlQmrdGNavcf6xAnytgKOzzDrJ7VqDfFFjYXQqTy3Ph4/XH4f6lW+HmhaFw59ersNkotkuV9jGwAhkMqAzggoGJiYms+URjjpOwz6DPxhHWL6YRLgEBIKCopSJs1Ev9s7OzrR2s8gWA0lozIk5EHgUtRcpgFzjrZhqX+tCKKFW7hI4ADWveiNKlUVe0wE/WUwI1qjcFMu4LgtrV1c192eC7BKUT7WVaV30uO9xv10+sS6TdgKeAl/xK+EtbqQdo5lxASz2CQqAx/Q5IbCh6yDl9DOQJDLULWVPMskVeA6F6wMeqKmAorGrP2W8r8B8V+LrzMzxb/RieD90Nj36/DcsHm4W9IWoEnAAGRHqI5hHp0SBe2HBUkIFdGwyIqimypsFfgKIiAhRgkogTgz2QqCib8sVH4IM2FCkDnKAB35sHbAAxTP+2S9TBp5tpS0CMqCFJUT/ZRQc0AJaBqzzN1WYBncoWOWKDaVfayiYfrvFJMIpNAB3NATH1kyKXaT918oF6tAEE6M1L+BEDo/LQl9pcpHuddh/jF+2IwVTlfLQCVVLAUFil3rKvVqCPFPi0/SPwOW4CfoACDfiAFSAiMDuu/aLlgS4AFWDKgyX8k49AHVErAEMRyV7KMB0JDAKvpBTe0jbEEcr0WS/XAlj0B8TwHT/ULmwRwaVPykrYxiYROkAUEN7a2sqm4YHveJq6U51ohP96b9K8vFea0gUOY4CmHJE/wDEtj10+MahiWxFC1SNN0IwPCf+drECVFTAUVrn37LsVOEUF+C3jo36hJHWHMp0SgzMDsCJC5NUgrYGbgV3TcqmtOA/PNKWX5ityHUcXVR7oA57y6mETB+si+cSplzJoAcDoa2Pi6VMilUopuOl+t0egGygiGhavj1P9TImiea1Wy0zShrwEDANxgF27PsorR+SOdvIrJoDhyMhIdq683az7Gx8fz7LjM+s6qZ93hylj2oRdvVfYI/I4NTUV5ufns3Jxu9P3iL4UoMsnRwqlhI9nWYGBer3e+1bBs6yI21Y5BQYHB7vyub6z21W+fs3UbB7+U200GuHg4CDs7e2F7e2tbE3Y+tpaCM1GGBsbOzH3P698z37LuFswBAhfXn5Qym8fn1ijbNgKWAErYAVaCjhS2JLCJ1bACnRS4OHV2wa8TgL5mRWwAlag4gqcq7j/dt8KWAErYAWsgBWwAlagBAUMhSWIaBNWwApYAStgBayAFai6AobCqveg/bcCVsAKWAErYAWsQAkKGApLENEmrIAVsAJWwApYAStQdQUMhVXvQftvBayAFbACVsAKWIESFDAUliCiTVgBK2AFrIAVsAJWoOoK/AWJTWhustdx9AAAAABJRU5ErkJggg==;" vertex="1" parent="1">
          <mxGeometry x="-320" y="48.47" width="297.31" height="263.07" as="geometry" />
        </mxCell>
        <mxCell id="dF-b-PyfVtP-A9ZUPwfD-124" value="封ip是在哪里封？" style="whiteSpace=wrap;html=1;fillColor=#52F3FF;" vertex="1" parent="1">
          <mxGeometry x="-190" y="455" width="120" height="60" as="geometry" />
        </mxCell>
        <mxCell id="dF-b-PyfVtP-A9ZUPwfD-125" value="" style="edgeStyle=orthogonalEdgeStyle;rounded=0;orthogonalLoop=1;jettySize=auto;html=1;strokeColor=#FF7E75;fillColor=#FF866E;" edge="1" parent="1" source="dF-b-PyfVtP-A9ZUPwfD-81" target="dF-b-PyfVtP-A9ZUPwfD-124">
          <mxGeometry relative="1" as="geometry" />
        </mxCell>
        <mxCell id="dF-b-PyfVtP-A9ZUPwfD-128" value="什么是代理？" style="text;html=1;strokeColor=none;fillColor=#4FFF2B;align=center;verticalAlign=middle;whiteSpace=wrap;rounded=0;" vertex="1" parent="1">
          <mxGeometry x="50" y="40" width="80" height="40" as="geometry" />
        </mxCell>
      </root>
    </mxGraphModel>
  </diagram>
</mxfile>
